<svg width="142.000977" height="28.000000" viewBox="0 0 142.001 28" fill="none" xmlns="http://www.w3.org/2000/svg" xmlns:xlink="http://www.w3.org/1999/xlink">
	<desc>
			Created with Pixso.
	</desc>
	<defs>
		<clipPath id="clip1_1088">
			<rect id="tp_icons 1" width="74.000000" height="14.000000" fill="white" fill-opacity="0"/>
		</clipPath>
	</defs>
	<rect id="tp_icons 1" width="74.000000" height="14.000000" fill="#FFFFFF" fill-opacity="0"/>
	<g clip-path="url(#clip1_1088)">
		<path id="Rectangle-path" d="M0 0L14 0L14 14L0 14L0 0Z" fill="#00B67A" fill-opacity="1.000000" fill-rule="evenodd"/>
		<path id="Rectangle-path" d="M15 0L29 0L29 14L15 14L15 0Z" fill="#00B67A" fill-opacity="1.000000" fill-rule="evenodd"/>
		<path id="Rectangle-path" d="M30 0L44 0L44 14L30 14L30 0Z" fill="#00B67A" fill-opacity="1.000000" fill-rule="evenodd"/>
		<path id="Rectangle-path" d="M45 0L59 0L59 14L45 14L45 0Z" fill="#00B67A" fill-opacity="1.000000" fill-rule="evenodd"/>
		<path id="Rectangle-path" d="M60 0L74 0L74 14L60 14L60 0Z" fill="#00B67A" fill-opacity="1.000000" fill-rule="evenodd"/>
		<path id="Shape" d="M7.01337 9.43213L9.14764 8.89258L10.0394 11.6343L7.01337 9.43213ZM11.9251 5.88867L8.16821 5.88867L7.01337 2.35938L5.85846 5.88867L2.10156 5.88867L5.14221 8.07617L3.9873 11.605L7.02795 9.41748L8.89911 8.07617L11.9251 5.88867Z" fill="#D5D5D5" fill-opacity="1.000000" fill-rule="nonzero"/>
		<path id="Shape" d="M22.2165 9.43213L24.3508 8.89258L25.2425 11.6343L22.2165 9.43213ZM27.1282 5.88867L23.3713 5.88867L22.2165 2.35938L21.0616 5.88867L17.3047 5.88867L20.3453 8.07617L19.1904 11.605L22.2311 9.41748L24.1022 8.07617L27.1282 5.88867Z" fill="#D5D5D5" fill-opacity="1.000000" fill-rule="nonzero"/>
		<path id="Shape" d="M37.4196 9.43213L39.5539 8.89258L40.4456 11.6343L37.4196 9.43213ZM42.3314 5.88867L38.5745 5.88867L37.4196 2.35938L36.2648 5.88867L32.5078 5.88867L35.5485 8.07617L34.3936 11.605L37.4342 9.41748L39.3054 8.07617L42.3314 5.88867Z" fill="#D5D5D5" fill-opacity="1.000000" fill-rule="nonzero"/>
		<path id="Shape" d="M52.6227 9.43213L54.757 8.89258L55.6487 11.6343L52.6227 9.43213ZM57.5345 5.88867L53.7776 5.88867L52.6227 2.35938L51.4679 5.88867L47.7109 5.88867L50.7516 8.07617L49.5967 11.605L52.6373 9.41748L54.5085 8.07617L57.5345 5.88867Z" fill="#D5D5D5" fill-opacity="1.000000" fill-rule="nonzero"/>
		<path id="Shape" d="M67.8259 9.43213L69.9601 8.89258L70.8519 11.6343L67.8259 9.43213ZM72.7376 5.88867L68.9807 5.88867L67.8259 2.35938L66.671 5.88867L62.9141 5.88867L65.9547 8.07617L64.7998 11.605L67.8405 9.41748L69.7116 8.07617L72.7376 5.88867Z" fill="#D5D5D5" fill-opacity="1.000000" fill-rule="nonzero"/>
	</g>
	<path id="Text 12" d="M4.08718 25.0645Q3.23952 25.0645 2.55984 24.6934Q1.88015 24.3203 1.49148 23.6641Q1.10476 23.0078 1.10476 22.1992Q1.10476 21.3926 1.49148 20.7363Q1.88015 20.0801 2.55984 19.709Q3.23952 19.3359 4.08718 19.3359Q4.92702 19.3359 5.60671 19.709Q6.28835 20.0801 6.67117 20.7324Q7.05593 21.3848 7.05593 22.1992Q7.05593 23.0156 6.67117 23.668Q6.28835 24.3203 5.60671 24.6934Q4.92702 25.0645 4.08718 25.0645ZM4.08718 24.3516Q4.70437 24.3516 5.19656 24.0723Q5.68874 23.793 5.97195 23.3008Q6.25515 22.8086 6.25515 22.1992Q6.25515 21.5918 5.97195 21.0996Q5.68874 20.6074 5.19656 20.3281Q4.70437 20.0488 4.08718 20.0488Q3.47195 20.0488 2.97195 20.3281Q2.47195 20.6074 2.18679 21.0996Q1.90359 21.5918 1.90359 22.1992Q1.90359 22.8086 2.18679 23.3008Q2.47195 23.793 2.97195 24.0723Q3.47195 24.3516 4.08718 24.3516ZM11.9205 20.7598L10.063 25L9.27984 25L7.42437 20.7598L8.2232 20.7598L9.68023 24.1602L11.1685 20.7598L11.9205 20.7598ZM16.3525 22.9043Q16.3525 22.9922 16.3369 23.1367L12.8955 23.1367Q12.9678 23.6953 13.3877 24.0371Q13.8076 24.377 14.4326 24.377Q15.1924 24.377 15.6553 23.8633L16.0791 24.3594Q15.792 24.6953 15.3643 24.873Q14.9365 25.0488 14.4072 25.0488Q13.7354 25.0488 13.2158 24.7734Q12.6963 24.4961 12.4111 24Q12.1279 23.5039 12.1279 22.8809Q12.1279 22.2637 12.4033 21.7676Q12.6807 21.2715 13.1631 20.9961Q13.6475 20.7207 14.2568 20.7207Q14.8643 20.7207 15.3389 20.9961Q15.8154 21.2715 16.083 21.7676Q16.3525 22.2637 16.3525 22.9043ZM14.2568 21.3672Q13.7041 21.3672 13.3311 21.7031Q12.96 22.0391 12.8955 22.584L15.6162 22.584Q15.5518 22.0488 15.1787 21.709Q14.8076 21.3672 14.2568 21.3672ZM18.1528 21.4727Q18.3521 21.1035 18.7427 20.9121Q19.1353 20.7207 19.6958 20.7207L19.6958 21.4648Q19.6314 21.4551 19.52 21.4551Q18.895 21.4551 18.5396 21.8281Q18.1841 22.1992 18.1841 22.8887L18.1841 25L17.4165 25L17.4165 20.7598L18.1528 20.7598L18.1528 21.4727ZM24.5927 19.4004L24.5927 25L23.2958 25L23.2958 20.4395L22.1766 20.4395L22.1766 19.4004L24.5927 19.4004ZM27.9689 25.0957Q27.2716 25.0957 26.7267 24.752Q26.1837 24.4082 25.8751 23.7559Q25.5685 23.1035 25.5685 22.1992Q25.5685 21.2969 25.8751 20.6445Q26.1837 19.9922 26.7267 19.6484Q27.2716 19.3047 27.9689 19.3047Q28.6642 19.3047 29.2072 19.6484Q29.7521 19.9922 30.0587 20.6445Q30.3673 21.2969 30.3673 22.1992Q30.3673 23.1035 30.0587 23.7559Q29.7521 24.4082 29.2072 24.752Q28.6642 25.0957 27.9689 25.0957ZM27.9689 24Q28.4806 24 28.7716 23.5605Q29.0646 23.1191 29.0646 22.1992Q29.0646 21.2793 28.7716 20.8398Q28.4806 20.4004 27.9689 20.4004Q27.463 20.4004 27.1701 20.8398Q26.879 21.2793 26.879 22.1992Q26.879 23.1191 27.1701 23.5605Q27.463 24 27.9689 24ZM31.6406 23.5117Q31.9766 23.5117 32.1914 23.7246Q32.4082 23.9355 32.4082 24.2793Q32.4082 24.4395 32.3672 24.5996Q32.3281 24.7598 32.1914 25.0801L31.7363 26.2324L30.9434 26.2324L31.2969 24.9609Q31.0957 24.8809 30.9785 24.7012Q30.8633 24.5195 30.8633 24.2793Q30.8633 23.9355 31.084 23.7246Q31.3047 23.5117 31.6406 23.5117ZM35.2889 25.0957Q34.5916 25.0957 34.0467 24.752Q33.5037 24.4082 33.1951 23.7559Q32.8885 23.1035 32.8885 22.1992Q32.8885 21.2969 33.1951 20.6445Q33.5037 19.9922 34.0467 19.6484Q34.5916 19.3047 35.2889 19.3047Q35.9842 19.3047 36.5272 19.6484Q37.0721 19.9922 37.3787 20.6445Q37.6873 21.2969 37.6873 22.1992Q37.6873 23.1035 37.3787 23.7559Q37.0721 24.4082 36.5272 24.752Q35.9842 25.0957 35.2889 25.0957ZM35.2889 24Q35.8006 24 36.0916 23.5605Q36.3846 23.1191 36.3846 22.1992Q36.3846 21.2793 36.0916 20.8398Q35.8006 20.4004 35.2889 20.4004Q34.783 20.4004 34.4901 20.8398Q34.199 21.2793 34.199 22.1992Q34.199 23.1191 34.4901 23.5605Q34.783 24 35.2889 24ZM40.7209 25.0957Q40.0236 25.0957 39.4787 24.752Q38.9357 24.4082 38.6271 23.7559Q38.3205 23.1035 38.3205 22.1992Q38.3205 21.2969 38.6271 20.6445Q38.9357 19.9922 39.4787 19.6484Q40.0236 19.3047 40.7209 19.3047Q41.4162 19.3047 41.9592 19.6484Q42.5041 19.9922 42.8107 20.6445Q43.1193 21.2969 43.1193 22.1992Q43.1193 23.1035 42.8107 23.7559Q42.5041 24.4082 41.9592 24.752Q41.4162 25.0957 40.7209 25.0957ZM40.7209 24Q41.2326 24 41.5236 23.5605Q41.8166 23.1191 41.8166 22.1992Q41.8166 21.2793 41.5236 20.8398Q41.2326 20.4004 40.7209 20.4004Q40.215 20.4004 39.9221 20.8398Q39.631 21.2793 39.631 22.1992Q39.631 23.1191 39.9221 23.5605Q40.215 24 40.7209 24ZM46.1529 25.0957Q45.4556 25.0957 44.9107 24.752Q44.3677 24.4082 44.0591 23.7559Q43.7525 23.1035 43.7525 22.1992Q43.7525 21.2969 44.0591 20.6445Q44.3677 19.9922 44.9107 19.6484Q45.4556 19.3047 46.1529 19.3047Q46.8482 19.3047 47.3912 19.6484Q47.9361 19.9922 48.2427 20.6445Q48.5513 21.2969 48.5513 22.1992Q48.5513 23.1035 48.2427 23.7559Q47.9361 24.4082 47.3912 24.752Q46.8482 25.0957 46.1529 25.0957ZM46.1529 24Q46.6646 24 46.9556 23.5605Q47.2486 23.1191 47.2486 22.1992Q47.2486 21.2793 46.9556 20.8398Q46.6646 20.4004 46.1529 20.4004Q45.647 20.4004 45.3541 20.8398Q45.063 21.2793 45.063 22.1992Q45.063 23.1191 45.3541 23.5605Q45.647 24 46.1529 24ZM52.9036 21.2637Q53.1282 20.9512 53.5071 20.793Q53.8879 20.6328 54.384 20.6328L54.384 21.7832Q54.1751 21.7676 54.1047 21.7676Q53.5676 21.7676 53.2629 22.0684Q52.9602 22.3672 52.9602 22.9688L52.9602 25L51.7122 25L51.7122 20.6953L52.9036 20.6953L52.9036 21.2637ZM59.303 22.8633Q59.303 22.8887 59.2796 23.1992L56.0237 23.1992Q56.1116 23.5996 56.4397 23.832Q56.7679 24.0645 57.2561 24.0645Q57.5921 24.0645 57.8518 23.9648Q58.1116 23.8633 58.3362 23.6484L59.0003 24.3672Q58.3929 25.0645 57.2249 25.0645Q56.4964 25.0645 55.9358 24.7812Q55.3753 24.4961 55.0706 23.9922Q54.7679 23.4883 54.7679 22.8477Q54.7679 22.2168 55.0667 21.709Q55.3675 21.1992 55.8909 20.916Q56.4163 20.6328 57.0647 20.6328Q57.6956 20.6328 58.2073 20.9043Q58.719 21.1758 59.01 21.6836Q59.303 22.1914 59.303 22.8633ZM57.0725 21.5762Q56.6487 21.5762 56.3596 21.8164Q56.0725 22.0566 56.0081 22.4727L58.1272 22.4727Q58.0647 22.0645 57.7757 21.8203Q57.4886 21.5762 57.0725 21.5762ZM64.3277 20.6953L62.5112 25L61.2241 25L59.4155 20.6953L60.7046 20.6953L61.896 23.623L63.1284 20.6953L64.3277 20.6953ZM64.8402 20.6953L66.0882 20.6953L66.0882 25L64.8402 25L64.8402 20.6953ZM65.4632 20.0957Q65.1195 20.0957 64.9027 19.8965Q64.6878 19.6953 64.6878 19.4004Q64.6878 19.1035 64.9027 18.9043Q65.1195 18.7031 65.4632 18.7031Q65.807 18.7031 66.0238 18.8965Q66.2406 19.0879 66.2406 19.377Q66.2406 19.6875 66.0238 19.8926Q65.807 20.0957 65.4632 20.0957ZM71.463 22.8633Q71.463 22.8887 71.4396 23.1992L68.1837 23.1992Q68.2716 23.5996 68.5997 23.832Q68.9279 24.0645 69.4161 24.0645Q69.7521 24.0645 70.0118 23.9648Q70.2716 23.8633 70.4962 23.6484L71.1603 24.3672Q70.5529 25.0645 69.3849 25.0645Q68.6564 25.0645 68.0958 24.7812Q67.5353 24.4961 67.2306 23.9922Q66.9279 23.4883 66.9279 22.8477Q66.9279 22.2168 67.2267 21.709Q67.5275 21.1992 68.0509 20.916Q68.5763 20.6328 69.2247 20.6328Q69.8556 20.6328 70.3673 20.9043Q70.879 21.1758 71.17 21.6836Q71.463 22.1914 71.463 22.8633ZM69.2325 21.5762Q68.8087 21.5762 68.5197 21.8164Q68.2325 22.0566 68.1681 22.4727L70.2872 22.4727Q70.2247 22.0645 69.9357 21.8203Q69.6486 21.5762 69.2325 21.5762ZM79.1283 20.6953L77.5677 25L76.3685 25L75.3998 22.3281L74.3998 25L73.2005 25L71.6478 20.6953L72.8236 20.6953L73.8392 23.6074L74.8959 20.6953L75.9525 20.6953L76.9759 23.6074L78.0248 20.6953L79.1283 20.6953ZM81.0954 25.0645Q80.5603 25.0645 80.0486 24.9336Q79.5368 24.8008 79.2322 24.5996L79.6482 23.7031Q79.9353 23.8887 80.3435 24.0039Q80.7517 24.1191 81.1443 24.1191Q81.9353 24.1191 81.9353 23.7285Q81.9353 23.5449 81.7185 23.4648Q81.5036 23.3848 81.0564 23.3281Q80.5271 23.248 80.1833 23.1445Q79.8396 23.0391 79.5876 22.7754Q79.3357 22.5117 79.3357 22.0234Q79.3357 21.6152 79.572 21.3008Q79.8083 20.9844 80.2595 20.8086Q80.7126 20.6328 81.3279 20.6328Q81.7849 20.6328 82.2361 20.7324Q82.6872 20.832 82.9841 21.0078L82.5681 21.8965Q81.9997 21.5762 81.3279 21.5762Q80.9275 21.5762 80.7263 21.6895Q80.5271 21.8008 80.5271 21.9766Q80.5271 22.1758 80.7439 22.2559Q80.9607 22.3359 81.4314 22.4082Q81.9607 22.4961 82.2966 22.5957Q82.6325 22.6953 82.8806 22.9609Q83.1286 23.2246 83.1286 23.6953Q83.1286 24.0957 82.8884 24.4082Q82.6482 24.7207 82.1872 24.8926Q81.7282 25.0645 81.0954 25.0645ZM88.0169 25.0488Q87.3841 25.0488 86.8802 24.7695Q86.3763 24.4883 86.0911 23.9961Q85.8079 23.5039 85.8079 22.8809Q85.8079 22.2559 86.0911 21.7637Q86.3763 21.2715 86.8802 20.9961Q87.3841 20.7207 88.0169 20.7207Q88.6478 20.7207 89.1478 20.9961Q89.6478 21.2715 89.931 21.7637Q90.2161 22.2559 90.2161 22.8809Q90.2161 23.5039 89.931 23.9961Q89.6478 24.4883 89.1478 24.7695Q88.6478 25.0488 88.0169 25.0488ZM88.0169 24.377Q88.4232 24.377 88.7474 24.1895Q89.0716 24 89.2552 23.6602Q89.4408 23.3203 89.4408 22.8809Q89.4408 22.4395 89.2552 22.0996Q89.0716 21.7598 88.7474 21.5762Q88.4232 21.3926 88.0169 21.3926Q87.6087 21.3926 87.2845 21.5762Q86.9603 21.7598 86.7708 22.0996Q86.5833 22.4395 86.5833 22.8809Q86.5833 23.3203 86.7708 23.6602Q86.9603 24 87.2845 24.1895Q87.6087 24.377 88.0169 24.377ZM93.5442 20.7207Q94.3528 20.7207 94.8274 21.1895Q95.304 21.6562 95.304 22.5605L95.304 25L94.5364 25L94.5364 22.6484Q94.5364 22.0312 94.2395 21.7207Q93.9446 21.4082 93.3918 21.4082Q92.7688 21.4082 92.4075 21.7734Q92.0481 22.1367 92.0481 22.8164L92.0481 25L91.2805 25L91.2805 20.7598L92.0168 20.7598L92.0168 21.4004Q92.2473 21.0723 92.6438 20.8965Q93.0403 20.7207 93.5442 20.7207Z" fill="#000000" fill-opacity="1.000000" fill-rule="evenodd"/>
	<path id="Vector" d="M109.562 20.251L114.014 20.251L114.014 21.1719L112.261 21.1719L112.261 26.3623L111.3 26.3623L111.3 21.1719L109.555 21.1719L109.562 20.251ZM113.823 21.9375L114.645 21.9375L114.645 22.7935L114.659 22.7935C114.689 22.6709 114.74 22.5571 114.813 22.4429C114.887 22.3286 114.975 22.2227 115.085 22.1333C115.187 22.0356 115.305 21.9619 115.437 21.9053C115.561 21.8481 115.693 21.8154 115.825 21.8154C115.928 21.8154 116.001 21.8237 116.038 21.8237C116.075 21.8315 116.119 21.8398 116.155 21.8398L116.155 22.7769C116.097 22.7607 116.031 22.7524 115.965 22.7441C115.899 22.7363 115.84 22.728 115.774 22.728C115.627 22.728 115.488 22.7607 115.356 22.8257C115.224 22.8911 115.114 22.9888 115.011 23.1108C114.916 23.2412 114.835 23.396 114.777 23.5835C114.718 23.771 114.689 23.9912 114.689 24.2354L114.689 26.3379L113.808 26.3379L113.823 21.9375ZM120.189 26.3623L119.324 26.3623L119.324 25.7432L119.309 25.7432C119.199 25.9712 119.038 26.1421 118.825 26.2808C118.612 26.4194 118.392 26.4844 118.172 26.4844C117.652 26.4844 117.27 26.3457 117.036 26.0527C116.801 25.7676 116.683 25.3271 116.683 24.749L116.683 21.9375L117.564 21.9375L117.564 24.6509C117.564 25.042 117.63 25.3193 117.769 25.4741C117.901 25.6372 118.092 25.7188 118.334 25.7188C118.517 25.7188 118.671 25.686 118.796 25.6206C118.92 25.5557 119.023 25.4741 119.096 25.3682C119.177 25.2622 119.228 25.1318 119.265 24.9854C119.302 24.8384 119.316 24.6753 119.316 24.5044L119.316 21.9375L120.197 21.9375L120.197 26.3623L120.189 26.3623ZM121.685 24.9443C121.715 25.2295 121.81 25.4253 121.979 25.5474C122.147 25.6616 122.353 25.7188 122.587 25.7188C122.668 25.7188 122.763 25.7104 122.866 25.6938C122.969 25.6777 123.072 25.6533 123.16 25.6128C123.255 25.5718 123.328 25.5146 123.387 25.4331C123.446 25.3521 123.475 25.2539 123.468 25.1318C123.46 25.0098 123.424 24.9038 123.343 24.8223C123.262 24.7407 123.167 24.6836 123.05 24.6265C122.932 24.5776 122.793 24.5371 122.639 24.5044C122.485 24.4717 122.331 24.4312 122.169 24.3901C122.008 24.3496 121.847 24.3008 121.693 24.2437C121.539 24.1865 121.407 24.1133 121.282 24.0073C121.165 23.9097 121.062 23.7876 120.996 23.6323C120.923 23.4775 120.886 23.2983 120.886 23.0703C120.886 22.8257 120.937 22.6304 121.047 22.4673C121.15 22.3042 121.289 22.1738 121.451 22.0762C121.612 21.9785 121.795 21.9053 121.993 21.8643C122.191 21.8237 122.382 21.8071 122.558 21.8071C122.763 21.8071 122.962 21.8315 123.145 21.8809C123.328 21.9297 123.504 22.0029 123.651 22.1172C123.805 22.2227 123.93 22.3696 124.025 22.5405C124.128 22.7119 124.186 22.9238 124.216 23.168L123.299 23.168C123.255 22.9316 123.16 22.7769 123.013 22.6953C122.859 22.6138 122.69 22.5732 122.492 22.5732C122.433 22.5732 122.353 22.5815 122.272 22.5894C122.184 22.606 122.111 22.6221 122.03 22.6548C121.957 22.6875 121.891 22.7363 121.839 22.7935C121.788 22.8501 121.759 22.9316 121.759 23.0298C121.759 23.1519 121.795 23.2412 121.869 23.3149C121.942 23.3882 122.037 23.4453 122.162 23.502C122.279 23.5513 122.419 23.5918 122.573 23.6245C122.727 23.6567 122.888 23.6978 123.05 23.7383C123.211 23.7793 123.365 23.8281 123.519 23.8853C123.673 23.9424 123.812 24.0156 123.93 24.1216C124.047 24.2192 124.15 24.3413 124.223 24.4883C124.296 24.6348 124.333 24.8223 124.333 25.0342C124.333 25.2949 124.282 25.5146 124.172 25.7021C124.062 25.8813 123.922 26.0361 123.754 26.1504C123.585 26.2646 123.387 26.3457 123.182 26.4028C122.969 26.4517 122.763 26.4844 122.558 26.4844C122.309 26.4844 122.074 26.4517 121.861 26.3867C121.649 26.3213 121.458 26.2236 121.304 26.1016C121.15 25.9712 121.025 25.8164 120.937 25.6206C120.849 25.4331 120.798 25.2051 120.791 24.936L121.678 24.936L121.678 24.9443L121.685 24.9443ZM124.582 21.9375L125.25 21.9375L125.25 20.6016L126.13 20.6016L126.13 21.9297L126.922 21.9297L126.922 22.6548L126.13 22.6548L126.13 25.0176C126.13 25.1235 126.137 25.2051 126.145 25.2866C126.152 25.3599 126.174 25.4253 126.196 25.4741C126.225 25.5229 126.269 25.5635 126.321 25.5884C126.379 25.6128 126.453 25.6289 126.555 25.6289C126.614 25.6289 126.68 25.6289 126.739 25.6206C126.797 25.6128 126.863 25.6045 126.922 25.5884L126.922 26.3457C126.827 26.3623 126.731 26.3706 126.636 26.3784C126.541 26.395 126.453 26.395 126.35 26.395C126.115 26.395 125.932 26.3706 125.793 26.3213C125.653 26.2725 125.543 26.1992 125.462 26.1099C125.382 26.0117 125.33 25.8979 125.301 25.7593C125.272 25.6206 125.257 25.4497 125.25 25.2705L125.25 22.6631L124.582 22.6631L124.582 21.9214L124.582 21.9375ZM127.538 21.9375L128.367 21.9375L128.367 22.5405L128.381 22.5405C128.506 22.2798 128.675 22.1006 128.895 21.9868C129.115 21.8726 129.35 21.8154 129.614 21.8154C129.929 21.8154 130.2 21.8726 130.435 22.0029C130.67 22.125 130.86 22.2881 131.014 22.5083C131.168 22.7197 131.286 22.9727 131.359 23.2578C131.432 23.543 131.476 23.8525 131.476 24.1704C131.476 24.4717 131.44 24.7568 131.374 25.0342C131.3 25.311 131.198 25.5635 131.058 25.7754C130.919 25.9873 130.743 26.1587 130.523 26.2891C130.303 26.4194 130.054 26.4844 129.76 26.4844C129.636 26.4844 129.504 26.4683 129.379 26.4438C129.254 26.4194 129.13 26.3784 129.012 26.3213C128.895 26.2646 128.785 26.1909 128.689 26.1016C128.587 26.0117 128.506 25.9058 128.44 25.792L128.425 25.792L128.425 28L127.545 28L127.545 21.9375L127.538 21.9375ZM130.611 24.1538C130.611 23.9585 130.589 23.7627 130.538 23.5757C130.494 23.3882 130.42 23.2251 130.325 23.0786C130.23 22.9316 130.112 22.8179 129.98 22.728C129.841 22.6387 129.68 22.5977 129.504 22.5977C129.137 22.5977 128.858 22.7363 128.667 23.0215C128.484 23.3066 128.389 23.6895 128.389 24.1621C128.389 24.3901 128.411 24.5942 128.462 24.7812C128.513 24.9688 128.579 25.1318 128.682 25.2705C128.777 25.4087 128.895 25.5146 129.034 25.5962C129.174 25.6777 129.328 25.7188 129.511 25.7188C129.716 25.7188 129.878 25.6694 130.017 25.5801C130.156 25.4902 130.266 25.3682 130.362 25.2295C130.45 25.083 130.516 24.9199 130.552 24.7324C130.589 24.5371 130.611 24.3496 130.611 24.1538ZM132.159 20.251L133.039 20.251L133.039 21.1719L132.159 21.1719L132.159 20.251ZM132.159 21.9375L133.039 21.9375L133.039 26.3623L132.159 26.3623L132.159 21.9375ZM133.823 20.251L134.703 20.251L134.703 26.3623L133.823 26.3623L133.823 20.251ZM137.388 26.4844C137.072 26.4844 136.786 26.4272 136.537 26.3052C136.288 26.1831 136.082 26.0283 135.906 25.8242C135.738 25.6206 135.606 25.3682 135.518 25.083C135.43 24.7979 135.378 24.48 135.378 24.146C135.378 23.812 135.422 23.502 135.518 23.2168C135.606 22.9316 135.738 22.6875 135.906 22.4756C136.075 22.272 136.288 22.1089 136.537 21.9946C136.786 21.8809 137.072 21.8154 137.388 21.8154C137.703 21.8154 137.989 21.8726 138.239 21.9946C138.488 22.1089 138.693 22.272 138.869 22.4756C139.038 22.6792 139.17 22.9316 139.258 23.2168C139.346 23.502 139.397 23.812 139.397 24.146C139.397 24.4883 139.353 24.7979 139.258 25.083C139.163 25.3682 139.038 25.6128 138.869 25.8242C138.701 26.0283 138.488 26.1909 138.239 26.3052C137.989 26.4194 137.711 26.4844 137.388 26.4844ZM137.388 25.7104C137.578 25.7104 137.755 25.6616 137.894 25.5718C138.041 25.4824 138.151 25.3599 138.246 25.2134C138.341 25.0664 138.407 24.8955 138.451 24.7163C138.495 24.5288 138.517 24.3413 138.517 24.146C138.517 23.9585 138.495 23.771 138.451 23.5835C138.407 23.396 138.341 23.2334 138.246 23.0864C138.151 22.9399 138.033 22.8257 137.894 22.7363C137.747 22.6465 137.578 22.5977 137.388 22.5977C137.197 22.5977 137.021 22.6465 136.882 22.7363C136.735 22.8257 136.625 22.9482 136.53 23.0864C136.434 23.2334 136.368 23.396 136.324 23.5835C136.28 23.771 136.258 23.9585 136.258 24.146C136.258 24.3413 136.28 24.5288 136.324 24.7163C136.368 24.9038 136.434 25.0664 136.53 25.2134C136.625 25.3599 136.742 25.4824 136.882 25.5718C137.028 25.6694 137.197 25.7104 137.388 25.7104ZM139.661 21.9375L140.329 21.9375L140.329 20.6016L141.209 20.6016L141.209 21.9297L142.001 21.9297L142.001 22.6548L141.209 22.6548L141.209 25.0176C141.209 25.1235 141.216 25.2051 141.224 25.2866C141.231 25.3599 141.253 25.4253 141.275 25.4741C141.304 25.5229 141.348 25.5635 141.4 25.5884C141.458 25.6128 141.532 25.6289 141.634 25.6289C141.693 25.6289 141.759 25.6289 141.818 25.6206C141.876 25.6128 141.942 25.6045 142.001 25.5884L142.001 26.3457C141.906 26.3623 141.81 26.3706 141.715 26.3784C141.62 26.395 141.532 26.395 141.429 26.395C141.194 26.395 141.011 26.3706 140.872 26.3213C140.732 26.2725 140.622 26.1992 140.541 26.1099C140.461 26.0117 140.409 25.8979 140.38 25.7593C140.351 25.6206 140.336 25.4497 140.329 25.2705L140.329 22.6631L139.661 22.6631L139.661 21.9214L139.661 21.9375Z" fill="#000000" fill-opacity="1.000000" fill-rule="nonzero"/>
	<path id="Vector" d="M108.539 20.2534L104.513 20.2534L103.273 16L102.026 20.2534L98 20.2451L101.256 22.877L100.01 27.1309L103.266 24.4985L106.522 27.1309L105.283 22.877L108.539 20.2534Z" fill="#00B67A" fill-opacity="1.000000" fill-rule="nonzero"/>
	<path id="Vector" d="M105.558 23.8359L105.279 22.8745L103.27 24.4961L105.558 23.8359Z" fill="#005128" fill-opacity="1.000000" fill-rule="nonzero"/>
</svg>
