<svg width="76.000000" height="21.487305" viewBox="0 0 76 21.4873" fill="none" xmlns="http://www.w3.org/2000/svg" xmlns:xlink="http://www.w3.org/1999/xlink">
	<desc>
			Created with Pixso.
	</desc>
	<defs/>
	<rect id="Text" width="26.000000" height="11.000000" transform="translate(0.000000 0.390625)" fill="#FFFFFF" fill-opacity="0"/>
	<path id="Text 12" d="M10.8789 9.03906L9.05469 9.03906L9.05469 11.3906L6.52734 11.3906L6.52734 9.03906L0.496094 9.03906L0.496094 7.29297L5.77734 0.191406L8.49609 0.191406L3.60156 6.92578L6.60938 6.92578L6.60938 4.83203L9.05469 4.83203L9.05469 6.92578L10.8789 6.92578L10.8789 9.03906ZM13.4417 11.5195Q12.7854 11.5195 12.3362 11.0703Q11.887 10.6211 11.887 9.94922Q11.887 9.26172 12.3362 8.83984Q12.7854 8.41406 13.4417 8.41406Q14.0979 8.41406 14.5432 8.83984Q14.9924 9.26172 14.9924 9.94922Q14.9924 10.6211 14.5432 11.0703Q14.0979 11.5195 13.4417 11.5195ZM20.0946 0Q22.4462 0 23.7743 1.43359Q25.1024 2.86328 25.1024 5.55078Q25.1024 7.45312 24.3915 8.81641Q23.6805 10.1758 22.3837 10.8789Q21.0868 11.582 19.3915 11.582Q18.4969 11.582 17.6805 11.3828Q16.8641 11.1836 16.2899 10.8164L17.2469 8.91016Q18.0633 9.46875 19.3446 9.46875Q20.7665 9.46875 21.5985 8.62891Q22.4305 7.78906 22.4969 6.20703Q21.4891 7.21484 19.7118 7.21484Q18.6415 7.21484 17.7587 6.78516Q16.8798 6.35156 16.368 5.55859Q15.8563 4.76562 15.8563 3.72656Q15.8563 2.60547 16.4149 1.75781Q16.9774 0.910156 17.9423 0.457031Q18.911 0 20.0946 0ZM20.2899 5.27734Q21.1376 5.27734 21.6727 4.80859Q22.2079 4.33594 22.2079 3.59766Q22.2079 2.86328 21.6883 2.39844Q21.1688 1.93359 20.2548 1.93359Q19.4227 1.93359 18.9032 2.38281Q18.3837 2.83203 18.3837 3.59766Q18.3837 4.36719 18.9032 4.82422Q19.4227 5.27734 20.2899 5.27734Z" fill="#000000" fill-opacity="1.000000" fill-rule="evenodd"/>
	<rect id="Text" width="47.000000" height="8.000000" transform="translate(29.000000 3.390625)" fill="#FFFFFF" fill-opacity="0"/>
	<path id="Text 12" d="M32.8174 11.4639Q31.8682 11.4639 31.1123 11.0449Q30.3564 10.623 29.9287 9.88477Q29.5039 9.14648 29.5039 8.21191Q29.5039 7.27441 29.9287 6.53613Q30.3564 5.79785 31.1123 5.38477Q31.8682 4.97168 32.8174 4.97168Q33.7637 4.97168 34.5137 5.38477Q35.2637 5.79785 35.6885 6.53613Q36.1162 7.27441 36.1162 8.21191Q36.1162 9.14648 35.6885 9.88477Q35.2637 10.623 34.5137 11.0449Q33.7637 11.4639 32.8174 11.4639ZM32.8174 10.4561Q33.4268 10.4561 33.9131 10.1748Q34.3994 9.89062 34.6748 9.38086Q34.9531 8.87109 34.9531 8.21191Q34.9531 7.5498 34.6748 7.04004Q34.3994 6.53027 33.9131 6.25488Q33.4268 5.97949 32.8174 5.97949Q32.2051 5.97949 31.7188 6.25488Q31.2324 6.53027 30.9482 7.04004Q30.667 7.5498 30.667 8.21191Q30.667 8.87109 30.9482 9.38086Q31.2324 9.89062 31.7188 10.1748Q32.2051 10.4561 32.8174 10.4561ZM43.6395 5.03027L43.6395 11.3906L42.5468 11.3906L42.5468 10.4297Q42.2011 10.9219 41.6298 11.1943Q41.0614 11.4639 40.3876 11.4639Q39.1161 11.4639 38.3837 10.7607Q37.6512 10.0576 37.6512 8.68945L37.6512 5.03027L38.8026 5.03027L38.8026 8.55762Q38.8026 9.4834 39.2479 9.95801Q39.6932 10.4297 40.5194 10.4297Q41.4305 10.4297 41.9579 9.87891Q42.4882 9.3252 42.4882 8.31738L42.4882 5.03027L43.6395 5.03027ZM49.411 11.0186Q49.159 11.2354 48.787 11.3496Q48.4149 11.4639 48.0194 11.4639Q47.0614 11.4639 46.5311 10.9482Q46.0038 10.4297 46.0038 9.47168L46.0038 5.97949L44.9227 5.97949L44.9227 5.03027L46.0038 5.03027L46.0038 3.63867L47.1551 3.63867L47.1551 5.03027L48.9803 5.03027L48.9803 5.97949L47.1551 5.97949L47.1551 9.42188Q47.1551 9.9375 47.4129 10.2158Q47.6708 10.4912 48.1512 10.4912Q48.6786 10.4912 49.0506 10.1895L49.411 11.0186ZM56.7574 11.4639Q55.8082 11.4639 55.0523 11.0449Q54.2964 10.623 53.8687 9.88477Q53.4439 9.14648 53.4439 8.21191Q53.4439 7.27441 53.8687 6.53613Q54.2964 5.79785 55.0523 5.38477Q55.8082 4.97168 56.7574 4.97168Q57.7037 4.97168 58.4537 5.38477Q59.2037 5.79785 59.6285 6.53613Q60.0562 7.27441 60.0562 8.21191Q60.0562 9.14648 59.6285 9.88477Q59.2037 10.623 58.4537 11.0449Q57.7037 11.4639 56.7574 11.4639ZM56.7574 10.4561Q57.3668 10.4561 57.8531 10.1748Q58.3394 9.89062 58.6148 9.38086Q58.8931 8.87109 58.8931 8.21191Q58.8931 7.5498 58.6148 7.04004Q58.3394 6.53027 57.8531 6.25488Q57.3668 5.97949 56.7574 5.97949Q56.1451 5.97949 55.6588 6.25488Q55.1724 6.53027 54.8882 7.04004Q54.607 7.5498 54.607 8.21191Q54.607 8.87109 54.8882 9.38086Q55.1724 9.89062 55.6588 10.1748Q56.1451 10.4561 56.7574 10.4561ZM63.9789 3.36328Q62.9477 3.36328 62.9477 4.47949L62.9477 5.03027L64.7963 5.03027L64.7963 5.97949L62.9711 5.97949L62.9711 11.3906L61.8198 11.3906L61.8198 5.97949L60.7387 5.97949L60.7387 5.03027L61.8198 5.03027L61.8198 4.46777Q61.8198 3.51855 62.3705 2.96777Q62.9243 2.41406 63.9204 2.41406Q64.3041 2.41406 64.6381 2.51074Q64.975 2.60742 65.2153 2.78613L64.8666 3.66211Q64.4711 3.36328 63.9789 3.36328ZM71.1793 6.24316Q72.9547 6.24316 73.8072 6.93457Q74.6597 7.62305 74.6597 8.80957Q74.6597 9.56543 74.2877 10.1777Q73.9156 10.79 73.1715 11.1504Q72.4273 11.5107 71.3345 11.5107Q70.4351 11.5107 69.5943 11.2529Q68.7564 10.9951 68.1793 10.5381L68.8414 9.3252Q69.3072 9.71191 69.9605 9.93457Q70.6168 10.1543 71.3111 10.1543Q72.1402 10.1543 72.6148 9.81445Q73.0894 9.47168 73.0894 8.87109Q73.0894 8.22363 72.5767 7.89258Q72.067 7.56152 70.8306 7.56152L68.8033 7.56152L69.2369 2.99121L74.1676 2.99121L74.1676 4.29785L70.5553 4.29785L70.3765 6.24316L71.1793 6.24316Z" fill="#000000" fill-opacity="1.000000" fill-rule="evenodd"/>
	<rect id="Text" width="58.000000" height="8.000000" transform="translate(0.000000 13.390625)" fill="#FFFFFF" fill-opacity="0"/>
	<path id="Text 12" d="M7.5 19.832L7.5 21.3906L0.996094 21.3906L0.996094 12.9912L7.34473 12.9912L7.34473 14.5498L2.92676 14.5498L2.92676 16.375L6.8291 16.375L6.8291 17.8867L2.92676 17.8867L2.92676 19.832L7.5 19.832ZM12.9368 21.3906L11.5188 19.4102L10.0569 21.3906L8.01488 21.3906L10.4993 18.1387L8.09984 14.9336L10.2004 14.9336L11.5686 16.8174L12.9719 14.9336L14.9641 14.9336L12.5647 18.0918L15.0608 21.3906L12.9368 21.3906ZM18.8884 21.4873Q17.8571 21.4873 17.0339 21.0625Q16.2106 20.6348 15.7477 19.8789Q15.2878 19.123 15.2878 18.1621Q15.2878 17.2012 15.7477 16.4453Q16.2106 15.6895 17.0339 15.2646Q17.8571 14.8398 18.8884 14.8398Q19.9079 14.8398 20.6696 15.2646Q21.4313 15.6895 21.78 16.4834L20.3269 17.2627Q19.8229 16.375 18.8767 16.375Q18.1442 16.375 17.6638 16.8555Q17.1833 17.3359 17.1833 18.1621Q17.1833 18.9912 17.6638 19.4717Q18.1442 19.9492 18.8767 19.9492Q19.8347 19.9492 20.3269 19.0615L21.78 19.8555Q21.4313 20.623 20.6696 21.0566Q19.9079 21.4873 18.8884 21.4873ZM29.0985 18.1855Q29.0985 18.2236 29.0634 18.6895L24.1796 18.6895Q24.3114 19.29 24.8036 19.6387Q25.2958 19.9873 26.0282 19.9873Q26.5321 19.9873 26.9218 19.8379Q27.3114 19.6855 27.6483 19.3633L28.6444 20.4414Q27.7333 21.4873 25.9813 21.4873Q24.8886 21.4873 24.0477 21.0625Q23.2069 20.6348 22.7499 19.8789Q22.2958 19.123 22.2958 18.1621Q22.2958 17.2158 22.744 16.4541Q23.1952 15.6895 23.9804 15.2646Q24.7684 14.8398 25.7411 14.8398Q26.6874 14.8398 27.455 15.2471Q28.2225 15.6543 28.6591 16.416Q29.0985 17.1777 29.0985 18.1855ZM25.7528 16.2549Q25.1171 16.2549 24.6835 16.6152Q24.2528 16.9756 24.1561 17.5996L27.3349 17.5996Q27.2411 16.9873 26.8075 16.6211Q26.3768 16.2549 25.7528 16.2549ZM30.3483 12.4873L32.2203 12.4873L32.2203 21.3906L30.3483 21.3906L30.3483 12.4873ZM33.9603 12.4873L35.8323 12.4873L35.8323 21.3906L33.9603 21.3906L33.9603 12.4873ZM43.8945 18.1855Q43.8945 18.2236 43.8594 18.6895L38.9756 18.6895Q39.1074 19.29 39.5996 19.6387Q40.0918 19.9873 40.8242 19.9873Q41.3281 19.9873 41.7178 19.8379Q42.1074 19.6855 42.4443 19.3633L43.4404 20.4414Q42.5293 21.4873 40.7773 21.4873Q39.6846 21.4873 38.8437 21.0625Q38.0029 20.6348 37.5459 19.8789Q37.0918 19.123 37.0918 18.1621Q37.0918 17.2158 37.54 16.4541Q37.9912 15.6895 38.7764 15.2646Q39.5644 14.8398 40.5371 14.8398Q41.4834 14.8398 42.251 15.2471Q43.0185 15.6543 43.4551 16.416Q43.8945 17.1777 43.8945 18.1855ZM40.5488 16.2549Q39.9131 16.2549 39.4795 16.6152Q39.0488 16.9756 38.9521 17.5996L42.1309 17.5996Q42.0371 16.9873 41.6035 16.6211Q41.1728 16.2549 40.5488 16.2549ZM49.0671 14.8398Q50.2683 14.8398 51.0066 15.5605Q51.7448 16.2783 51.7448 17.6934L51.7448 21.3906L49.8728 21.3906L49.8728 17.9834Q49.8728 17.2158 49.5359 16.8379Q49.1989 16.46 48.5632 16.46Q47.8571 16.46 47.4353 16.8994Q47.0163 17.3359 47.0163 18.1973L47.0163 21.3906L45.1443 21.3906L45.1443 14.9336L46.9314 14.9336L46.9314 15.6895Q47.3034 15.2822 47.8542 15.0625Q48.4079 14.8398 49.0671 14.8398ZM57.5993 21.0801Q57.324 21.2822 56.9226 21.3848Q56.5212 21.4873 56.0759 21.4873Q54.9245 21.4873 54.2947 20.8984Q53.6648 20.3096 53.6648 19.1699L53.6648 16.5186L52.6687 16.5186L52.6687 15.0801L53.6648 15.0801L53.6648 13.5068L55.5368 13.5068L55.5368 15.0801L57.1452 15.0801L57.1452 16.5186L55.5368 16.5186L55.5368 19.1465Q55.5368 19.5537 55.7449 19.7764Q55.9558 19.999 56.3396 19.999Q56.7849 19.999 57.0954 19.7588L57.5993 21.0801Z" fill="#000000" fill-opacity="1.000000" fill-rule="evenodd"/>
</svg>
