<svg width="75.000000" height="28.000000" viewBox="0 0 75 28" fill="none" xmlns="http://www.w3.org/2000/svg" xmlns:xlink="http://www.w3.org/1999/xlink">
	<desc>
			Created with Pixso.
	</desc>
	<defs>
		<clipPath id="clip1_1085">
			<rect id="Union 2" width="75.000000" height="28.000000" fill="white" fill-opacity="0"/>
		</clipPath>
	</defs>
	<rect id="Union 2" width="75.000000" height="28.000000" fill="#FFFFFF" fill-opacity="0"/>
	<g clip-path="url(#clip1_1085)">
		<path id="Vector" d="M17.9869 1.73828L17.9869 1.79395C17.954 2.01318 17.8558 2.20166 17.6923 2.35986C17.4316 2.61182 17.0917 2.80518 16.7673 2.95117C13.4482 4.44434 10.222 5.89453 7.08881 7.30176C6.9212 7.37744 6.742 7.44385 6.55109 7.50244C5.72809 7.75342 4.87689 7.88916 3.99744 7.90967C3.65906 7.91797 3.34479 7.88525 3.05463 7.81201C2.9068 7.7749 2.75702 7.70996 2.63367 7.62061C2.42035 7.46631 2.3053 7.21484 2.39923 6.96436C2.44019 6.85498 2.50104 6.75342 2.58173 6.66064C2.58521 6.65674 2.58716 6.65137 2.58722 6.64648C2.58728 6.64111 2.58545 6.63623 2.58209 6.63232L1.06653 4.81836C1.06512 4.81689 1.06421 4.81494 1.06366 4.81299C1.06317 4.81104 1.06317 4.80908 1.06366 4.80713C1.06415 4.80518 1.06512 4.80322 1.06647 4.80127C1.06781 4.7998 1.06952 4.79883 1.07147 4.79785L2.74017 4.04834C2.74988 4.04395 2.76093 4.04346 2.77094 4.04688L5.28021 4.96729C5.28503 4.96875 5.29016 4.96973 5.29529 4.96924C5.30035 4.96924 5.30542 4.96777 5.31 4.96582L7.71948 3.86279C7.72137 3.86182 7.72302 3.86035 7.72424 3.85889C7.72559 3.85742 7.72638 3.85547 7.72675 3.85352C7.72711 3.85107 7.72693 3.84912 7.72632 3.84717C7.72571 3.84521 7.72461 3.84326 7.72308 3.8418L3.91809 0.124023C3.91711 0.123047 3.91644 0.121582 3.91614 0.120117C3.91583 0.119141 3.91595 0.117676 3.91644 0.116211C3.91693 0.115234 3.91779 0.114258 3.91888 0.113281C3.92004 0.112305 3.92133 0.112305 3.92273 0.112305C4.82068 0.0751953 5.71497 0.0380859 6.60565 0C6.64618 -0.00146484 6.68378 0.00585938 6.71844 0.0229492C8.29382 0.786133 9.81848 1.52539 11.2922 2.23926C11.2971 2.2417 11.3022 2.24268 11.3076 2.24268C11.3129 2.24316 11.3182 2.2417 11.323 2.23975C12.228 1.83154 13.1299 1.42627 14.0288 1.02441C15.086 0.55127 16.3473 0.34375 17.4065 0.942871C17.5163 1.00488 17.6155 1.07568 17.7041 1.15479C17.8807 1.31299 17.9749 1.50732 17.9869 1.73828ZM29.3617 16.4102L29.3617 16.9043C29.2776 20.0337 27.8871 22.9731 25.5086 25.0518C23.5524 26.7617 21.2367 27.7441 18.5616 28L16.5035 28C14.5877 27.8257 12.852 27.269 11.2965 26.3296C9.93304 25.5063 8.79852 24.4854 7.89282 23.2671C6.49768 21.3892 5.76245 19.2725 5.68726 16.9165L5.68726 16.3965C5.79358 13.6182 6.78296 11.2012 8.65533 9.14502C8.83722 8.94531 9.04425 8.75293 9.25171 8.56055L9.25177 8.56055C9.34381 8.4751 9.43597 8.38965 9.526 8.30322C9.73975 8.09814 9.98297 7.91602 10.223 7.73633L10.223 7.73584L10.223 7.73584C10.295 7.68213 10.3668 7.62842 10.4374 7.57422C10.6633 7.40039 10.9067 7.25244 11.153 7.10205L11.1531 7.10205C11.2164 7.06348 11.2798 7.0249 11.3432 6.98584C11.5717 6.84424 11.799 6.71973 12.0253 6.61133C12.0892 6.58105 12.1523 6.55029 12.2152 6.52002C12.4669 6.39795 12.7131 6.27881 12.9773 6.17773C13.3038 6.05322 13.6134 5.94336 13.9062 5.84912C14.0493 5.80322 14.3073 5.7334 14.6803 5.63916C14.9442 5.57227 15.1946 5.521 15.4317 5.48486C15.5031 5.47412 15.5741 5.46289 15.6448 5.45166C15.9075 5.40967 16.1663 5.36865 16.423 5.35303C16.5156 5.34717 16.608 5.34033 16.7002 5.33398C17.0858 5.30664 17.4693 5.27979 17.8593 5.3042C17.9612 5.31055 18.0623 5.31543 18.1633 5.3208C18.3986 5.33252 18.6333 5.34424 18.8756 5.37256C20.4224 5.55029 21.8682 5.99609 23.2128 6.70996C23.3907 6.8042 23.6747 6.97021 24.065 7.20703C24.3038 7.35254 24.5244 7.51709 24.7435 7.68066L24.7436 7.68066C24.8032 7.7251 24.8626 7.76953 24.9223 7.81348C25.119 7.95752 25.3105 8.11523 25.4971 8.28662C25.5463 8.33154 25.5956 8.37646 25.6449 8.42139C25.8452 8.60303 26.0449 8.78467 26.236 8.98682C28.2107 11.0752 29.2526 13.5498 29.3617 16.4102ZM14.5282 9.4873C14.4446 9.6665 14.363 9.8457 14.2831 10.0239C14.2826 10.0254 14.2823 10.0269 14.2825 10.0283C14.2826 10.0298 14.283 10.0308 14.2838 10.0322C14.2841 10.0327 14.2844 10.0332 14.2849 10.0337C14.2852 10.0337 14.2854 10.0342 14.2857 10.0342C14.2859 10.0347 14.2863 10.0347 14.2866 10.0352C14.2872 10.0356 14.2879 10.0356 14.2886 10.0361C14.2892 10.0361 14.2899 10.0361 14.2905 10.0366C15.1151 10.1479 15.9418 10.2183 16.7708 10.2471C16.78 10.2476 16.7847 10.2432 16.7847 10.2339L16.7847 6.90283C16.7847 6.90234 16.7846 6.90137 16.7845 6.90088C16.7844 6.90039 16.7843 6.8999 16.7841 6.89941C16.7838 6.89844 16.7834 6.89746 16.783 6.89648C16.7819 6.89502 16.7804 6.89355 16.7786 6.89209C16.7767 6.89111 16.7746 6.89062 16.7725 6.89014C16.7703 6.89014 16.7681 6.89062 16.7662 6.8916C16.2363 7.13428 15.79 7.55469 15.4359 8.00781C15.0752 8.46924 14.7726 8.9624 14.5282 9.4873ZM20.6036 9.66602C20.3298 9.04834 19.9896 8.48291 19.5831 7.9707C19.2321 7.52881 18.8099 7.14404 18.2897 6.89355C18.287 6.89258 18.2841 6.89209 18.2811 6.89209C18.2781 6.89209 18.2751 6.89307 18.2726 6.89453C18.2701 6.896 18.268 6.89795 18.2665 6.90088C18.2651 6.90332 18.2643 6.90576 18.2643 6.90869L18.2643 10.2217C18.2643 10.2388 18.2731 10.2466 18.2906 10.2461C19.1048 10.2173 19.9201 10.1475 20.7367 10.0371C20.7607 10.0337 20.7677 10.0215 20.7575 10C20.7067 9.89453 20.6553 9.7832 20.6036 9.66602ZM12.8067 9.74512C13.1346 8.87598 13.5752 8.06201 14.1282 7.30225C14.1473 7.27588 14.1412 7.26807 14.1097 7.27881C13.5456 7.47314 12.996 7.7124 12.4608 7.99756C12.2637 8.10205 12.0773 8.21826 11.8937 8.33301L11.8936 8.33301L11.8936 8.33301C11.8282 8.37402 11.7633 8.41455 11.6984 8.4541C11.4568 8.60205 11.2327 8.77734 11.0097 8.95166C10.9202 9.02148 10.8309 9.09131 10.7407 9.15918C10.7389 9.16064 10.7375 9.16211 10.7367 9.16406C10.7359 9.1665 10.7357 9.16846 10.736 9.17041C10.7365 9.17285 10.7374 9.1748 10.7389 9.17627C10.7404 9.17822 10.7422 9.1792 10.7444 9.18018C10.8165 9.20361 10.889 9.22754 10.9619 9.25146L10.9619 9.25146L10.962 9.25146L10.962 9.25146C11.3325 9.37402 11.7117 9.49951 12.09 9.5918C12.3144 9.64697 12.541 9.7041 12.7697 9.76318C12.7772 9.76514 12.7852 9.76416 12.792 9.76074C12.7988 9.75732 12.8041 9.75195 12.8067 9.74512ZM21.2537 7.39502C21.1501 7.35645 21.0438 7.32031 20.9346 7.28564C20.91 7.27832 20.9049 7.28467 20.9194 7.30469C21.4645 8.06836 21.9112 8.87646 22.2399 9.74512C22.2421 9.75098 22.2464 9.75586 22.2521 9.75879C22.2579 9.76172 22.2645 9.7627 22.2709 9.76123C22.9642 9.61133 23.6421 9.4165 24.3045 9.17773C24.3062 9.17725 24.3076 9.17627 24.3087 9.1748C24.3097 9.17334 24.3104 9.17188 24.3107 9.17041C24.311 9.16846 24.3109 9.16699 24.3102 9.16553C24.3099 9.16455 24.3095 9.16406 24.3091 9.16309C24.3088 9.16309 24.3085 9.1626 24.3082 9.16211C24.3079 9.16211 24.3076 9.16162 24.3073 9.16113C23.3736 8.39404 22.3557 7.80518 21.2537 7.39502ZM25.2469 10.3389C24.4454 10.6636 23.61 10.9248 22.7407 11.1211C22.7341 11.123 22.7285 11.127 22.725 11.1323C22.7214 11.1377 22.7202 11.1445 22.7217 11.1509C22.7526 11.2812 22.785 11.4126 22.8174 11.5449C22.9071 11.9097 22.9978 12.2788 23.0616 12.6411C23.0971 12.8433 23.133 13.0454 23.1694 13.2476C23.2245 13.5532 23.2597 13.8677 23.2946 14.1792C23.3015 14.2412 23.3084 14.3027 23.3155 14.3643C23.3636 14.7812 23.3848 15.1963 23.4061 15.6123L23.4061 15.6123L23.4061 15.6128L23.4061 15.6128L23.4061 15.6128L23.4061 15.6128C23.4117 15.7207 23.4172 15.8286 23.4232 15.937C23.4235 15.9419 23.4257 15.9463 23.4294 15.9497C23.433 15.9526 23.438 15.9546 23.4431 15.9546L27.8238 15.9546C27.826 15.9546 27.8284 15.9541 27.8304 15.9536C27.8325 15.9526 27.8344 15.9512 27.8359 15.9497C27.8375 15.9482 27.8386 15.9463 27.8394 15.9438C27.84 15.9419 27.8403 15.9399 27.84 15.938C27.6621 13.8086 26.8654 11.9253 25.4499 10.2881C25.4394 10.2754 25.4263 10.272 25.4106 10.2773C25.3566 10.2959 25.3021 10.3159 25.2469 10.3389ZM7.98718 12.8149C7.55035 13.8076 7.28955 14.8506 7.20483 15.9438C7.20422 15.9512 7.20758 15.9546 7.21497 15.9546L11.597 15.9546C11.6057 15.9546 11.6141 15.9517 11.6203 15.9458C11.6265 15.9399 11.6301 15.9316 11.6304 15.9233C11.6677 14.6538 11.8104 13.4419 12.0585 12.2881C12.1412 11.9038 12.2315 11.5254 12.3295 11.1523C12.3304 11.1489 12.3306 11.1455 12.33 11.1421C12.3295 11.1387 12.3282 11.1353 12.3263 11.1323C12.3244 11.1294 12.3219 11.127 12.319 11.1245C12.316 11.1226 12.3127 11.1211 12.3091 11.1206C11.3822 10.9121 10.4949 10.6299 9.64716 10.2739C9.63269 10.2681 9.62036 10.2705 9.61017 10.2822C8.93262 11.0518 8.39166 11.896 7.98718 12.8149ZM13.1091 15.9346C13.1088 15.9482 13.1157 15.9546 13.1299 15.9546L16.7504 15.9546C16.7595 15.9546 16.7682 15.9512 16.7746 15.9448C16.7811 15.939 16.7847 15.9307 16.7847 15.9219L16.7847 11.6797C16.7847 11.6768 16.7834 11.6738 16.7812 11.6719C16.7792 11.6699 16.7762 11.6685 16.7731 11.6685C15.7894 11.6436 14.8044 11.5571 13.8179 11.4092C13.8139 11.4087 13.8098 11.4097 13.8064 11.4116C13.803 11.4136 13.8005 11.417 13.7994 11.4204C13.3848 12.8779 13.1547 14.3828 13.1091 15.9346ZM21.4303 12.1191C21.376 11.9009 21.3184 11.6704 21.2574 11.4282C21.2537 11.4136 21.244 11.4067 21.2282 11.4092C20.2449 11.5571 19.2643 11.6431 18.2865 11.668C18.2717 11.6685 18.2643 11.6758 18.2643 11.6899L18.2643 15.9219C18.2643 15.9307 18.2679 15.939 18.2744 15.9448C18.2807 15.9512 18.2895 15.9546 18.2985 15.9546L21.9274 15.9546C21.9283 15.9546 21.9292 15.9546 21.9301 15.9546C21.9307 15.9541 21.9315 15.9541 21.9321 15.9536C21.9336 15.9531 21.9349 15.9521 21.936 15.9512C21.9372 15.9502 21.938 15.9487 21.9386 15.9478C21.9392 15.9463 21.9395 15.9448 21.9394 15.9429C21.9038 14.6626 21.7419 13.3682 21.4303 12.1191ZM9.95697 23.0464C10.7397 22.7251 11.5325 22.4692 12.3355 22.2788C12.3362 22.2783 12.3369 22.2783 12.3376 22.2783C12.3385 22.2778 12.3393 22.2773 12.3401 22.2769C12.3406 22.2769 12.3411 22.2764 12.3416 22.2764C12.3421 22.2759 12.3427 22.2759 12.3431 22.2754C12.3453 22.2739 12.3473 22.272 12.3488 22.2695C12.3502 22.2671 12.3512 22.2646 12.3516 22.2622C12.3521 22.2593 12.3519 22.2568 12.3513 22.2544C12.2733 21.9355 12.1959 21.6221 12.1191 21.3145C12.0569 21.0645 12.0107 20.8086 11.965 20.5552L11.965 20.5552L11.965 20.5552L11.965 20.5552C11.9473 20.4565 11.9295 20.3584 11.911 20.2612C11.8626 20.0059 11.8233 19.7446 11.7932 19.4775C11.7831 19.3901 11.7725 19.3027 11.7619 19.2144L11.7619 19.2144C11.7291 18.9429 11.6961 18.6694 11.6808 18.3994C11.6619 18.0684 11.6439 17.7339 11.6266 17.3955C11.6263 17.3906 11.624 17.3857 11.6202 17.3828C11.6165 17.3794 11.6115 17.3774 11.6063 17.3774L7.23627 17.3774C7.21899 17.3774 7.21094 17.3857 7.21222 17.4023C7.25507 17.9443 7.33997 18.4692 7.46698 18.978C7.8526 20.5249 8.59094 21.9092 9.68182 23.1313C9.69385 23.1445 9.7085 23.1479 9.72577 23.1411C9.72607 23.1411 9.80316 23.1094 9.95697 23.0464ZM13.805 21.9395C13.8077 21.9487 13.8139 21.957 13.8224 21.9624C13.831 21.9673 13.8412 21.9697 13.8513 21.9678C14.8343 21.8081 15.8026 21.7104 16.756 21.6748C16.7637 21.6743 16.7709 21.6714 16.7763 21.666C16.7816 21.6606 16.7847 21.6538 16.7847 21.646L16.7847 17.4106C16.7847 17.4019 16.7809 17.3936 16.7744 17.3872C16.7678 17.3809 16.7588 17.3774 16.7495 17.3774L13.1336 17.3774C13.1176 17.3774 13.1097 17.3853 13.11 17.4004C13.1538 18.9365 13.3854 20.4497 13.805 21.9395ZM21.2527 21.8662C21.2538 21.8662 21.255 21.8662 21.2562 21.8662C21.2574 21.8657 21.2587 21.8652 21.2599 21.8647C21.2621 21.8633 21.2636 21.8613 21.2643 21.8589C21.6703 20.4077 21.8953 18.9219 21.9394 17.4014C21.94 17.3853 21.932 17.3774 21.9153 17.3774L18.2879 17.3774C18.2722 17.3774 18.2643 17.3848 18.2643 17.3994L18.2643 21.6313C18.2643 21.6338 18.2648 21.6362 18.2658 21.6382C18.2668 21.6406 18.2682 21.6426 18.27 21.6445C18.2718 21.646 18.2739 21.6475 18.2763 21.6484C18.2772 21.6489 18.278 21.6489 18.279 21.6494C18.2797 21.6494 18.2805 21.6494 18.2812 21.6494C18.2816 21.6499 18.282 21.6499 18.2824 21.6499C18.2828 21.6499 18.2833 21.6499 18.2838 21.6499C19.2594 21.6572 20.249 21.7295 21.2527 21.8662ZM25.3611 22.9185C25.4055 22.936 25.4507 22.9497 25.4966 22.96C25.5104 22.9629 25.5219 22.959 25.5308 22.9482C26.8973 21.334 27.6695 19.4805 27.8474 17.3887C27.8475 17.3872 27.8474 17.3857 27.8468 17.3843C27.8464 17.3828 27.8456 17.3818 27.8446 17.3809C27.8436 17.3794 27.8424 17.3789 27.8411 17.3784C27.8407 17.3779 27.8403 17.3779 27.84 17.3779C27.8397 17.3779 27.8394 17.3774 27.8391 17.3774C27.8383 17.3774 27.8375 17.3774 27.8367 17.3774L23.4459 17.3774C23.4395 17.3774 23.4334 17.3799 23.4288 17.3838C23.4243 17.3882 23.4216 17.394 23.4214 17.3999C23.4084 17.8052 23.3867 18.1904 23.3561 18.5547C23.2526 19.7856 23.0485 20.9678 22.744 22.1011C22.7429 22.105 22.7427 22.1089 22.7433 22.1128C22.7439 22.1167 22.7454 22.1206 22.7475 22.124C22.7496 22.1274 22.7525 22.1304 22.7559 22.1323C22.7579 22.1338 22.7601 22.1353 22.7624 22.1357C22.7639 22.1367 22.7654 22.1372 22.7671 22.1372C23.6684 22.3267 24.5331 22.5869 25.3611 22.9185ZM20.7779 23.2798C20.7812 23.272 20.7847 23.2646 20.788 23.2573C20.7921 23.248 20.7889 23.2432 20.7788 23.2422C20.7586 23.2402 20.7384 23.2378 20.7181 23.2358C20.6974 23.2334 20.6766 23.2314 20.6558 23.229L20.6085 23.2241L20.6052 23.2236L20.6051 23.2236L20.605 23.2236C20.1143 23.1709 19.6013 23.1157 19.1086 23.0977C18.8506 23.0884 18.5784 23.0771 18.2921 23.064C18.2736 23.063 18.2643 23.0718 18.2643 23.0894L18.2643 26.4248C18.2643 26.4424 18.2723 26.4473 18.2883 26.439C18.679 26.2505 19.0364 25.9766 19.3607 25.6182C19.9793 24.9346 20.4149 24.1382 20.7779 23.2798ZM16.7587 26.4375C16.776 26.4458 16.7847 26.4404 16.7847 26.4219L16.7847 23.1196C16.7847 23.1016 16.7754 23.0933 16.7569 23.0942C15.9122 23.1387 15.0991 23.2207 14.3173 23.3403C14.3062 23.3418 14.3029 23.3477 14.3071 23.3579C14.6082 24.062 14.9772 24.75 15.4626 25.3569C15.8187 25.8032 16.2354 26.1807 16.7587 26.4375ZM22.2672 23.5137C21.9376 24.4043 21.4854 25.2549 20.9272 26.021C20.9056 26.0508 20.9127 26.0596 20.9485 26.0469C22.2324 25.605 23.3853 24.9541 24.4072 24.0938C24.4091 24.0923 24.4104 24.0903 24.4112 24.0879C24.412 24.0859 24.4121 24.0835 24.4117 24.0811C24.4114 24.0801 24.4111 24.0791 24.4106 24.0781C24.41 24.0767 24.4094 24.0757 24.4085 24.0752C24.4069 24.0732 24.4048 24.0718 24.4026 24.0713C24.282 24.0347 24.1595 23.9956 24.0361 23.9565L24.0337 23.9561L24.0333 23.9556C23.7125 23.854 23.3843 23.75 23.0612 23.6753C22.8035 23.6152 22.5513 23.5552 22.3047 23.4946C22.297 23.4927 22.2889 23.4937 22.282 23.4976C22.2751 23.501 22.2698 23.5068 22.2672 23.5137ZM14.1125 26.0454C14.1464 26.0566 14.153 26.0479 14.1324 26.0195C13.5991 25.291 13.1667 24.5 12.8354 23.6455C12.8346 23.6436 12.8334 23.6416 12.8321 23.6401C12.8307 23.6387 12.829 23.6372 12.8271 23.6367C12.8234 23.6348 12.819 23.6343 12.815 23.6353C12.1507 23.7886 11.4918 23.9878 10.8383 24.2319C10.8365 24.2324 10.8349 24.2339 10.8337 24.2354C10.8334 24.2354 10.8331 24.2358 10.8329 24.2363C10.8322 24.2373 10.8316 24.2388 10.8314 24.2402C10.8311 24.2417 10.8314 24.2437 10.832 24.2456C10.8328 24.2471 10.834 24.2485 10.8355 24.25C11.0183 24.3843 11.205 24.522 11.3954 24.6631C11.7057 24.8926 12.0766 25.1167 12.3975 25.2944C12.9511 25.5996 13.5228 25.8501 14.1125 26.0454ZM1.33734 11.6919C1.46478 11.0571 1.72083 10.4614 2.10547 9.90576C2.14478 9.84912 2.18213 9.79395 2.21753 9.74023C2.3479 9.54395 2.35675 9.3457 2.24921 9.12695C2.15179 8.92871 1.87634 8.89014 1.66711 8.89795C1.51636 8.90381 1.36658 9.02295 1.3009 9.13965C1.27264 9.18994 1.23883 9.23389 1.20526 9.27686C1.16217 9.33252 1.11938 9.3877 1.08936 9.45605C1.06091 9.521 1.02295 9.5791 0.985168 9.63721C0.941162 9.70459 0.8974 9.77148 0.86908 9.84863C0.839966 9.92822 0.797607 9.99951 0.755554 10.0708C0.704895 10.1562 0.654785 10.2407 0.629028 10.3374C0.58728 10.4961 0.52478 10.6528 0.441589 10.8091C0.409729 10.8682 0.38855 10.9341 0.374512 10.9995C0.219421 11.707 0.110779 12.3726 0.048584 12.9961C0.0435181 13.0493 0.0385742 13.1108 0.0477295 13.1631C0.0769653 13.3301 0.0866699 13.4897 0.0769653 13.6431C0.0692749 13.7676 0.0896606 13.8862 0.110168 14.0063C0.126282 14.1001 0.142456 14.1943 0.145203 14.2925C0.147949 14.3765 0.166809 14.4575 0.185913 14.5396C0.198059 14.5918 0.210327 14.6445 0.218506 14.6987C0.233276 14.7944 0.253296 14.894 0.278625 14.9976C0.337646 15.2412 0.395874 15.4565 0.453308 15.6431C0.547424 15.9482 0.688721 16.3262 0.877197 16.7778C0.907654 16.8516 0.944092 16.9209 0.980408 16.9907C1.01746 17.0615 1.05438 17.1323 1.0849 17.2065C1.13348 17.3242 1.19104 17.4346 1.25769 17.5376C1.34119 17.667 1.41425 17.7998 1.48767 17.9336C1.5824 18.106 1.6778 18.2793 1.79694 18.4478C2.23193 19.0601 2.68231 19.6523 3.14801 20.2241C3.34558 20.4663 3.57068 20.6924 3.79095 20.9136L3.79102 20.9136L3.79108 20.9136C3.84601 20.9688 3.90057 21.0239 3.95441 21.0786C4.09601 21.2227 4.24615 21.2661 4.40479 21.209C4.56238 21.1523 4.65649 21.1069 4.68701 21.0732C4.91541 20.8208 4.9259 20.5674 4.71851 20.3135C4.5578 20.1162 4.38251 19.9287 4.20898 19.7427C4.01898 19.5391 3.83105 19.3379 3.66669 19.1289L3.66327 19.1245C3.30884 18.6738 2.95074 18.2183 2.6485 17.7314C2.47168 17.4473 2.32709 17.2021 2.21478 16.9961C2.04901 16.6924 1.88892 16.3569 1.73456 15.9897C1.6911 15.8867 1.65527 15.7783 1.61932 15.6699L1.61932 15.6699C1.58905 15.5781 1.55865 15.4863 1.52356 15.397C1.46759 15.2539 1.4212 15.1055 1.38428 14.9507C1.29309 14.5698 1.22803 14.1938 1.18903 13.8237C1.14795 13.4321 1.1438 13.0703 1.17645 12.7388C1.20764 12.4194 1.26129 12.0703 1.33734 11.6919ZM38.3795 11.5625L38.3795 12.7998L33.65 12.7998L33.65 7.1377L38.2701 7.1377L38.2701 8.37549L35.2994 8.37549L35.2994 9.33008L37.9166 9.33008L37.9166 10.5269L35.2994 10.5269L35.2994 11.5625L38.3795 11.5625ZM42.9745 12.7998L41.7542 11.0449L40.5508 12.7998L38.6489 12.7998L40.7949 9.93652L38.7415 7.1377L40.6182 7.1377L41.7963 8.77197L42.9576 7.1377L44.7586 7.1377L42.7052 9.87158L44.8932 12.7998L42.9745 12.7998ZM47.9716 7.1377C48.5048 7.1377 48.9676 7.22412 49.3602 7.39648C49.7532 7.56396 50.0561 7.80664 50.2692 8.12451C50.4824 8.4375 50.5892 8.80664 50.5892 9.23291C50.5892 9.65869 50.4824 10.0283 50.2692 10.3408C50.0561 10.6538 49.7532 10.8965 49.3602 11.0688C48.9676 11.2363 48.5048 11.3198 47.9716 11.3198L46.9451 11.3198L46.9451 12.7998L45.2788 12.7998L45.2788 7.1377L47.9716 7.1377ZM47.8708 10.0581C48.213 10.0581 48.471 9.98779 48.6448 9.84766C48.8192 9.70215 48.9061 9.49707 48.9061 9.23291C48.9061 8.96875 48.8192 8.76367 48.6448 8.61816C48.471 8.47266 48.213 8.39941 47.8708 8.39941L46.9451 8.39941L46.9451 10.0581L47.8708 10.0581ZM53.9767 11.2954L53.0676 11.2954L53.0676 12.7998L51.4016 12.7998L51.4016 7.1377L54.0946 7.1377C54.6273 7.1377 55.0901 7.22412 55.4832 7.39648C55.8757 7.56396 56.1786 7.80664 56.3918 8.12451C56.6049 8.4375 56.7117 8.80664 56.7117 9.23291C56.7117 9.64258 56.6105 10.0015 56.4089 10.3086C56.2123 10.6108 55.9289 10.8477 55.5585 11.0205L56.8297 12.7998L55.0453 12.7998L53.9767 11.2954ZM55.0286 9.23291C55.0286 8.96875 54.9417 8.76367 54.7678 8.61816C54.5935 8.47266 54.3355 8.39941 53.9933 8.39941L53.0676 8.39941L53.0676 10.0581L53.9933 10.0581C54.3355 10.0581 54.5935 9.98779 54.7678 9.84766C54.9417 9.70215 55.0286 9.49707 55.0286 9.23291ZM62.3604 11.5625L62.3604 12.7998L57.631 12.7998L57.631 7.1377L62.2512 7.1377L62.2512 8.37549L59.2803 8.37549L59.2803 9.33008L61.8975 9.33008L61.8975 10.5269L59.2803 10.5269L59.2803 11.5625L62.3604 11.5625ZM65.3552 12.9131C64.8785 12.9131 64.4156 12.8564 63.9667 12.7432C63.5181 12.6304 63.1533 12.479 62.8727 12.2905L63.4197 11.1094C63.6832 11.2764 63.9893 11.4116 64.337 11.5137C64.6848 11.6162 65.0269 11.6675 65.3636 11.6675C66.0035 11.6675 66.323 11.5137 66.323 11.2065C66.323 11.0449 66.2305 10.9263 66.0456 10.8506C65.8657 10.7695 65.574 10.686 65.1703 10.5996C64.7269 10.5083 64.3565 10.4111 64.0591 10.3086C63.7618 10.2007 63.5066 10.0308 63.2935 9.79883C63.0803 9.56738 62.9739 9.25439 62.9739 8.86084C62.9739 8.51562 63.072 8.20557 63.2685 7.93066C63.4645 7.6499 63.7563 7.4292 64.1433 7.26709C64.5363 7.10547 65.0159 7.02441 65.5827 7.02441C65.9698 7.02441 66.3513 7.06787 66.7272 7.15381C67.1031 7.23486 67.4341 7.35596 67.7199 7.51807L67.2067 8.70703C66.6458 8.41602 66.1016 8.27002 65.574 8.27002C65.2433 8.27002 65.002 8.31885 64.8503 8.41602C64.6991 8.50732 64.6233 8.62891 64.6233 8.77979C64.6233 8.93066 64.713 9.04395 64.8924 9.11963C65.0718 9.19482 65.3608 9.27344 65.7594 9.354C66.2079 9.4458 66.5782 9.54541 66.8701 9.65332C67.1674 9.75586 67.4226 9.92285 67.6357 10.1548C67.8549 10.3813 67.9641 10.6914 67.9641 11.085C67.9641 11.4248 67.866 11.7324 67.6695 12.0073C67.4734 12.2822 67.1789 12.5034 66.7859 12.6704C66.3933 12.8325 65.9166 12.9131 65.3552 12.9131ZM70.8041 12.9131C70.3273 12.9131 69.8645 12.8564 69.4155 12.7432C68.9666 12.6304 68.6022 12.479 68.3215 12.2905L68.8685 11.1094C69.1321 11.2764 69.4382 11.4116 69.7859 11.5137C70.1336 11.6162 70.4758 11.6675 70.8124 11.6675C71.4518 11.6675 71.7719 11.5137 71.7719 11.2065C71.7719 11.0449 71.6794 10.9263 71.494 10.8506C71.3146 10.7695 71.0228 10.686 70.6191 10.5996C70.1757 10.5083 69.8053 10.4111 69.508 10.3086C69.2106 10.2007 68.9554 10.0308 68.7422 9.79883C68.5291 9.56738 68.4223 9.25439 68.4223 8.86084C68.4223 8.51562 68.5208 8.20557 68.7169 7.93066C68.9133 7.6499 69.2051 7.4292 69.5922 7.26709C69.9852 7.10547 70.4647 7.02441 71.0311 7.02441C71.4186 7.02441 71.8 7.06787 72.176 7.15381C72.5519 7.23486 72.8825 7.35596 73.1688 7.51807L72.6555 8.70703C72.0946 8.41602 71.5504 8.27002 71.0228 8.27002C70.6917 8.27002 70.4508 8.31885 70.2991 8.41602C70.1475 8.50732 70.0721 8.62891 70.0721 8.77979C70.0721 8.93066 70.1618 9.04395 70.3412 9.11963C70.5206 9.19482 70.8096 9.27344 71.2082 9.354C71.6567 9.4458 72.0271 9.54541 72.3188 9.65332C72.6162 9.75586 72.8714 9.92285 73.0846 10.1548C73.3033 10.3813 73.4129 10.6914 73.4129 11.085C73.4129 11.4248 73.3149 11.7324 73.1183 12.0073C72.9218 12.2822 72.6273 12.5034 72.2347 12.6704C71.8421 12.8325 71.3649 12.9131 70.8041 12.9131ZM34.3737 20.9814C34.7889 21.1113 35.2181 21.1758 35.6613 21.1758C36.1606 21.1758 36.5814 21.106 36.9236 20.9653C37.2658 20.8198 37.5211 20.626 37.6894 20.3833C37.8577 20.1353 37.9418 19.8628 37.9418 19.5659C37.9418 19.2104 37.8437 18.9272 37.6473 18.7168C37.4566 18.5063 37.2266 18.3501 36.9572 18.2476C36.6879 18.145 36.3317 18.0425 35.8885 17.9404C35.5463 17.8647 35.2741 17.7944 35.0721 17.73C34.8758 17.6597 34.7103 17.5654 34.5756 17.4468C34.441 17.3228 34.3737 17.1636 34.3737 16.9697C34.3737 16.7056 34.4915 16.4897 34.7271 16.3223C34.9684 16.1553 35.3275 16.0718 35.8043 16.0718C36.0736 16.0718 36.3485 16.1123 36.629 16.1929C36.9095 16.2686 37.1732 16.3818 37.4201 16.5327L37.6978 15.8857C37.4566 15.7241 37.1677 15.6001 36.831 15.5137C36.4944 15.4272 36.1522 15.3843 35.8043 15.3843C35.305 15.3843 34.887 15.457 34.5504 15.6025C34.2138 15.748 33.9613 15.9424 33.793 16.1851C33.6303 16.4277 33.549 16.7002 33.549 17.002C33.549 17.3633 33.6443 17.6519 33.8351 17.8677C34.0314 18.0776 34.2643 18.2344 34.5336 18.3364C34.8085 18.439 35.1675 18.5415 35.6108 18.644C35.9642 18.7251 36.2363 18.7979 36.4271 18.8623C36.6235 18.9272 36.7861 19.0215 36.9152 19.1455C37.0498 19.2642 37.1171 19.4204 37.1171 19.6147C37.1171 19.8789 36.9965 20.0918 36.7552 20.2539C36.514 20.4102 36.1494 20.4883 35.6613 20.4883C35.291 20.4883 34.9291 20.4287 34.5756 20.3105C34.2278 20.186 33.9417 20.0273 33.7173 19.833L33.4059 20.4639C33.6415 20.6743 33.9641 20.8467 34.3737 20.9814ZM44.2375 21.1113L44.2375 15.4487L43.3959 15.4487L43.3959 17.8838L40.0129 17.8838L40.0129 15.4487L39.1713 15.4487L39.1713 21.1113L40.0129 21.1113L40.0129 18.5874L43.3959 18.5874L43.3959 21.1113L44.2375 21.1113ZM46.8425 15.4487L46.0007 15.4487L46.0007 21.1113L46.8425 21.1113L46.8425 15.4487ZM52.7042 15.9746C52.2668 15.624 51.6666 15.4487 50.9032 15.4487L48.606 15.4487L48.606 21.1113L49.4476 21.1113L49.4476 19.3965L50.9032 19.3965C51.6666 19.3965 52.2668 19.2212 52.7042 18.8706C53.1421 18.52 53.3608 18.0371 53.3608 17.4224C53.3608 16.8076 53.1421 16.3252 52.7042 15.9746ZM52.0984 18.3691C51.8178 18.5845 51.4109 18.6924 50.8782 18.6924L49.4476 18.6924L49.4476 16.1528L50.8782 16.1528C51.4109 16.1528 51.8178 16.2632 52.0984 16.4844C52.3787 16.7002 52.5192 17.0127 52.5192 17.4224C52.5192 17.8325 52.3787 18.1479 52.0984 18.3691ZM58.6954 15.9746C58.258 15.624 57.6573 15.4487 56.8944 15.4487L54.5972 15.4487L54.5972 21.1113L55.4388 21.1113L55.4388 19.3965L56.8944 19.3965C57.6573 19.3965 58.258 19.2212 58.6954 18.8706C59.1328 18.52 59.352 18.0371 59.352 17.4224C59.352 16.8076 59.1328 16.3252 58.6954 15.9746ZM58.0897 18.3691C57.809 18.5845 57.4021 18.6924 56.8694 18.6924L55.4388 18.6924L55.4388 16.1528L56.8694 16.1528C57.4021 16.1528 57.809 16.2632 58.0897 16.4844C58.3699 16.7002 58.5104 17.0127 58.5104 17.4224C58.5104 17.8325 58.3699 18.1479 58.0897 18.3691ZM61.4295 15.4487L60.588 15.4487L60.588 21.1113L61.4295 21.1113L61.4295 15.4487ZM68.2595 21.1113L68.2595 15.4487L67.418 15.4487L67.418 19.6714L63.8834 15.4487L63.1935 15.4487L63.1935 21.1113L64.0351 21.1113L64.0351 16.8887L67.5696 21.1113L68.2595 21.1113ZM74.9124 18.2476L74.1042 18.2476L74.1042 20.0918C73.7116 20.3345 73.2515 20.4561 72.7244 20.4561C72.2809 20.4561 71.8801 20.3613 71.5208 20.1729C71.1675 19.9839 70.8896 19.7251 70.6876 19.3965C70.4855 19.062 70.3847 18.6899 70.3847 18.2798C70.3847 17.8647 70.4855 17.4927 70.6876 17.1636C70.8896 16.8296 71.1675 16.5703 71.5208 16.3872C71.8801 16.1982 72.2838 16.104 72.7327 16.104C73.4004 16.104 73.9696 16.3223 74.4408 16.7593L74.9628 16.2578C74.6932 15.9722 74.3654 15.7563 73.9779 15.6108C73.5964 15.4595 73.1701 15.3843 72.699 15.3843C72.0988 15.3843 71.5573 15.5083 71.0746 15.7563C70.5978 16.0044 70.2219 16.3496 69.9473 16.7915C69.6777 17.2339 69.5432 17.73 69.5432 18.2798C69.5432 18.8301 69.6777 19.3262 69.9473 19.7686C70.2219 20.2051 70.5978 20.5503 71.0746 20.8037C71.5518 21.0518 72.0872 21.1758 72.6823 21.1758C73.1031 21.1758 73.5068 21.1138 73.8938 20.9897C74.2812 20.8657 74.6207 20.688 74.9124 20.4561L74.9124 18.2476Z" fill="#000000" fill-opacity="1.000000" fill-rule="evenodd"/>
	</g>
</svg>
