<svg width="66.499939" height="28.000000" viewBox="0 0 66.4999 28" fill="none" xmlns="http://www.w3.org/2000/svg" xmlns:xlink="http://www.w3.org/1999/xlink">
	<desc>
			Created with Pixso.
	</desc>
	<defs>
		<linearGradient id="paint_linear_3_157_0" x1="4.182730" y1="23.772430" x2="13.065962" y2="13.689279" gradientUnits="userSpaceOnUse">
			<stop stop-color="#A80034"/>
			<stop offset="1.000000" stop-color="#DB0031"/>
		</linearGradient>
	</defs>
	<path id="path7" d="M43.4532 22.0884C42.2098 22.4326 40.5905 22.5757 39.2025 22.5757C35.588 22.5757 33.2168 20.7109 33.2168 17.2974C33.2168 14.0552 35.4434 11.9609 38.6819 11.9609C39.4048 11.9609 40.1856 12.0474 40.6483 12.2769L40.6483 7.57178L43.4532 7.57178L43.4532 22.0884ZM40.6483 14.6865C40.2145 14.4858 39.6072 14.3711 38.9133 14.3711C37.2073 14.3711 36.0795 15.4038 36.0795 17.2109C36.0795 19.1333 37.294 20.2231 39.2892 20.2231C39.6362 20.2231 40.1856 20.2231 40.6483 20.1084L40.6483 14.6865ZM66.4999 22.0884C65.2565 22.4326 63.6372 22.5757 62.2203 22.5757C58.6346 22.5757 56.2345 20.7109 56.2345 17.2974C56.2345 14.0552 58.4611 11.9609 61.6998 11.9609C62.4516 11.9609 63.2034 12.0474 63.6661 12.2769L63.6661 7.57178L66.4999 7.57178L66.4999 22.0884ZM63.6661 14.6865C63.2324 14.4858 62.654 14.3711 61.96 14.3711C60.225 14.3711 59.0972 15.4038 59.0972 17.2109C59.0972 19.1333 60.3406 20.2231 62.3359 20.2231C62.6829 20.2231 63.2034 20.2231 63.6661 20.1084L63.6661 14.6865ZM47.8775 14.6865C48.3401 14.4858 49.0052 14.4282 49.5547 14.4282C51.2897 14.4282 52.4753 15.4038 52.4753 17.1538C52.4753 19.2192 51.1451 20.166 49.3812 20.1948L49.3812 22.5757L49.5258 22.5757C53.1693 22.5757 55.3381 20.5962 55.3381 17.0679C55.3381 13.8545 53.0247 11.9609 49.6125 11.9609C47.8775 11.9609 46.1714 12.3628 45.0436 12.8218L45.0436 26.4487L47.8775 26.4487L47.8775 14.6865Z" fill="#3F3F42" fill-opacity="1.000000" fill-rule="evenodd"/>
	<path id="Vector" d="M12.0044 0C11.847 0 11.6896 0.0351562 11.5672 0.0961914L0.603271 6.08301L12.8787 13.2427C12.9924 13.3042 13.0798 13.4531 13.0798 13.5845L13.0798 24.0176C13.0798 24.1489 12.9836 24.2974 12.8699 24.3589L12.2054 24.7266C12.153 24.7529 12.0831 24.77 12.0044 24.77L11.9869 24.77C11.9082 24.77 11.8295 24.7617 11.777 24.7266L11.1125 24.3589C10.9989 24.2974 10.9115 24.1489 10.9115 24.0176L10.9115 14.7134C10.9115 14.6436 10.859 14.5645 10.7978 14.5298L0 8.22754L0 20.5688C0 20.8491 0.192322 21.1816 0.437134 21.3218L11.5759 27.895C11.6984 27.9648 11.847 28 12.0044 28C12.1617 28 12.3192 27.9648 12.4328 27.895L23.5716 21.3218C23.8077 21.1816 24 20.8403 24 20.5688L24 8.22754L16.6732 12.499C16.5596 12.5688 16.3847 12.5601 16.2711 12.499L15.624 12.1138C15.5716 12.0786 15.5191 12.0264 15.4841 11.9648C15.4404 11.8862 15.423 11.8164 15.4142 11.7461L15.3967 10.9849C15.3967 10.8535 15.4754 10.7046 15.5891 10.6348L23.3967 6.08301L12.4415 0.0961914C12.3192 0.0263672 12.1617 0 12.0044 0Z" fill="url(#paint_linear_3_157_0)" fill-opacity="1.000000" fill-rule="evenodd"/>
</svg>
