<svg width="69.000000" height="21.000000" viewBox="0 0 69 21" fill="none" xmlns="http://www.w3.org/2000/svg" xmlns:xlink="http://www.w3.org/1999/xlink">
	<desc>
			Created with Pixso.
	</desc>
	<defs/>
	<path id="path6" d="M62.8964 20.2642L60.0692 17.1143L57.2685 20.2642L51.3758 20.2642L57.1348 13.8325L51.3758 7.40088L57.4529 7.40088L60.307 10.5254L63.0548 7.40088L68.9197 7.40088L63.1867 13.8057L69 20.2642L62.8964 20.2642ZM40.0529 20.2642L40.0529 0L51.3758 0L51.3758 4.51709L44.8483 4.51709L44.8483 7.40088L51.3758 7.40088L51.3758 11.7461L44.8483 11.7461L44.8483 15.7349L51.3758 15.7349L51.3758 20.2642L40.0529 20.2642Z" fill="#FF7A08" fill-opacity="1.000000" fill-rule="evenodd"/>
	<path id="path8" d="M35.2787 0L35.2787 8.29297L35.2244 8.29297C34.1673 7.08545 32.8468 6.66602 31.3145 6.66602C28.1489 6.66602 25.7964 8.83252 24.986 11.6709C24.0537 8.54102 21.6174 6.60791 17.9696 6.60791C15.0078 6.60791 12.7008 7.95654 11.4958 10.1221L11.4958 7.40088L5.41882 7.40088L5.41882 4.5166L12.0513 4.5166L12.0513 0L0 0L0 20.2642L5.41882 20.2642L5.41882 11.7461L10.85 11.7461C10.6863 12.3765 10.572 13.0352 10.572 13.749C10.572 17.9761 13.821 20.9429 17.9696 20.9429C21.4586 20.9429 23.7572 19.3154 24.9736 16.3491L20.3304 16.3491C19.7026 17.2422 19.2252 17.5049 17.9691 17.5049C16.5136 17.5049 15.2584 16.2441 15.2584 14.7471L24.7389 14.7471C25.1514 18.1016 27.7562 21 31.367 21C32.9258 21 34.353 20.2397 35.2244 18.9531L35.2787 18.9531L35.2787 20.2646L40.0533 20.2646L40.0533 0L35.2787 0ZM15.4097 11.8066C15.7102 10.519 16.7148 9.67871 17.9691 9.67871C19.351 9.67871 20.3044 10.4946 20.555 11.8066L15.4097 11.8066ZM32.3792 17.1792C30.6188 17.1792 29.525 15.5488 29.525 13.8481C29.525 12.0293 30.4758 10.2803 32.3792 10.2803C34.353 10.2803 35.1379 12.0293 35.1379 13.8481C35.1379 15.5728 34.3049 17.1792 32.3792 17.1792Z" fill="#462895" fill-opacity="1.000000" fill-rule="evenodd"/>
</svg>
