<svg width="74.000000" height="23.000000" viewBox="0 0 74 23" fill="none" xmlns="http://www.w3.org/2000/svg" xmlns:xlink="http://www.w3.org/1999/xlink">
	<desc>
			Created with Pixso.
	</desc>
	<defs/>
	<path id="Vector" d="M73.9998 0L73.9998 16.4209L0 16.4209L0 0L73.9998 0Z" fill="#FFCC00" fill-opacity="1.000000" fill-rule="nonzero"/>
	<path id="Vector" d="M13.0134 2.94824L10.6492 6.17822L23.5345 6.17822C24.1858 6.17822 24.1772 6.42676 23.8588 6.86035C23.5355 7.30078 22.9945 8.06641 22.6652 8.51367C22.4981 8.74072 22.1959 9.15381 23.1972 9.15381L28.4665 9.15381C28.4665 9.15381 29.3158 7.9917 30.0276 7.02002C30.9962 5.69873 30.1116 2.94824 26.6492 2.94824L13.0134 2.94824Z" fill="#D2002E" fill-opacity="1.000000" fill-rule="nonzero"/>
	<path id="Vector" d="M9.69275 13.4707L14.4415 6.98242L20.3343 6.98242C20.9856 6.98242 20.9771 7.23145 20.6588 7.66504C20.3354 8.10547 19.7855 8.86279 19.4562 9.31006C19.289 9.53662 18.9869 9.95068 19.9881 9.95068L27.8827 9.95068C27.2261 10.8555 25.0964 13.4707 21.2724 13.4707L9.69275 13.4707ZM36.8889 9.9502L34.3137 13.4702L27.5208 13.4702C27.5208 13.4702 30.0945 9.95068 30.0967 9.95068L36.8889 9.9502ZM47.2953 9.15381L30.6803 9.15381L35.2239 2.94824L42.0148 2.94824L39.4105 6.50684L42.4418 6.50684L45.0471 2.94824L51.8373 2.94824L47.2953 9.15381ZM46.7122 9.95117L44.1357 13.4707L37.3453 13.4707C37.3453 13.4707 39.9191 9.95117 39.9213 9.95117L46.7122 9.95117ZM0 11.3389L10.0073 11.3389L9.46063 12.0864L0 12.0864L0 11.3389ZM0 9.95117L11.024 9.95117L10.4763 10.6978L0 10.6978L0 9.95117ZM0 12.7275L8.99115 12.7275L8.44708 13.4707L0 13.4707L0 12.7275ZM74 12.0864L64.0312 12.0864L64.5784 11.3389L74 11.3389L74 12.0864ZM74 13.4707L63.0178 13.4717L63.5618 12.7275L74 12.7275L74 13.4707ZM65.5938 9.95117L74 9.95117L74 10.6982L65.0471 10.6987L65.5938 9.95117ZM61.2419 2.94824L56.6992 9.15381L49.5034 9.15381C49.5034 9.15381 54.0472 2.94824 54.0496 2.94824L61.2419 2.94824ZM48.921 9.95117C48.921 9.95117 48.4247 10.6333 48.1837 10.9609C47.3307 12.1201 48.0848 13.4707 50.8683 13.4707L61.7742 13.4707L64.3503 9.95117L48.921 9.95117Z" fill="#D2002E" fill-opacity="1.000000" fill-rule="nonzero"/>
	<path id="Vector" d="M0 19.0903L74 19.0903L74 19.4624L0 19.4624L0 19.0903ZM0 20.8262L74 20.8262L74 21.1982L0 21.1982L0 20.8262ZM0 22.5615L74 22.5615L74 22.9336L0 22.9336L0 22.5615Z" fill="#FFCC00" fill-opacity="1.000000" fill-rule="nonzero"/>
	<path id="Vector" d="M24.8486 22.9341L27.0757 22.9341L27.4312 22.4497L25.7738 22.4497L26.7032 21.1831L28.2125 21.1831L28.568 20.6987L27.0587 20.6987L27.8829 19.5757L29.5403 19.5757L29.8959 19.0908L27.6689 19.0908L24.8486 22.9341ZM27.5817 22.9341L28.2652 22.9341L30.5947 21.3042L30.5719 22.9341L31.2896 22.9341L31.2949 20.9243L33.9788 19.0908L33.3295 19.0908L31.1931 20.5664L31.2164 19.0908L30.533 19.0908L30.5122 20.9355L27.5817 22.9341ZM34.8409 19.5757L35.3251 19.5757C35.6783 19.5757 36.0729 19.752 35.7173 20.2363C35.3455 20.7427 34.7761 20.9136 34.4229 20.9136L33.8589 20.9136L34.8409 19.5757ZM31.8067 22.9341L32.3762 22.9341L33.5034 21.3979L34.0615 21.3979C34.7792 21.3979 35.6906 21.0952 36.3168 20.2417C36.9593 19.3662 36.4835 19.0908 35.6691 19.0908L34.6269 19.0908L31.8067 22.9341ZM35.0864 22.9341L35.6561 22.9341L36.9086 21.2271L37.2502 21.2271C37.552 21.2271 37.7402 21.2271 37.642 21.6016L37.2737 22.9341L37.9231 22.9341L38.2946 21.4033C38.343 21.1665 38.3183 21.084 38.19 21.0181L38.1981 21.0068C38.7162 20.9297 39.3173 20.5996 39.6608 20.1313C40.3355 19.2119 39.6669 19.0908 38.8807 19.0908L37.9069 19.0908L35.0864 22.9341ZM38.1208 19.5757L38.6675 19.5757C39.1917 19.5757 39.3033 19.7959 39.0489 20.1426C38.7782 20.5117 38.2895 20.7427 37.7483 20.7427L37.2642 20.7427L38.1208 19.5757ZM38.5128 22.9341L40.7399 22.9341L41.0952 22.4497L39.438 22.4497L40.3672 21.1831L41.8766 21.1831L42.2319 20.6987L40.7228 20.6987L41.5469 19.5757L43.2043 19.5757L43.5601 19.0908L41.3331 19.0908L38.5128 22.9341ZM46.3033 19.1626C46.0987 19.0688 45.8175 19.0249 45.5555 19.0249C44.8379 19.0249 44.0131 19.3887 43.512 20.0713C42.6353 21.2661 44.5178 21.0293 43.8873 21.8882C43.556 22.3394 42.971 22.5156 42.6465 22.5156C42.3558 22.5156 42.095 22.4053 41.9579 22.3281L41.5254 22.8403C41.7268 22.9229 41.9437 23 42.2228 23C43.0201 23 43.9135 22.6748 44.5155 21.8545C45.4448 20.5884 43.6107 20.7588 44.1523 20.0215C44.4474 19.6196 44.9041 19.5093 45.223 19.5093C45.5193 19.5093 45.6421 19.5591 45.8517 19.6689L46.3033 19.1626ZM49.1512 19.1626C48.9465 19.0688 48.6655 19.0249 48.4034 19.0249C47.6858 19.0249 46.861 19.3887 46.3599 20.0713C45.4832 21.2661 47.3656 21.0293 46.7352 21.8882C46.404 22.3394 45.8188 22.5156 45.4943 22.5156C45.2037 22.5156 44.9427 22.4053 44.806 22.3281L44.3732 22.8403C44.5746 22.9229 44.7916 23 45.0706 23C45.8679 23 46.7612 22.6748 47.3632 21.8545C48.2926 20.5884 46.4587 20.7588 47.0001 20.0215C47.2951 19.6196 47.752 19.5093 48.0709 19.5093C48.3671 19.5093 48.4902 19.5591 48.6996 19.6689L49.1512 19.1626Z" fill="#D2002E" fill-opacity="1.000000" fill-rule="nonzero"/>
</svg>
