<svg width="29.000000" height="35.000000" viewBox="0 0 29 35" fill="none" xmlns="http://www.w3.org/2000/svg" xmlns:xlink="http://www.w3.org/1999/xlink">
	<desc>
			Created with Pixso.
	</desc>
	<defs/>
	<path id="Vector" d="M14.5 34.6279C14.7944 34.479 22.4492 31.1284 24.8782 29.1182C27.3807 27.0332 28.7056 24.0552 28.7056 20.4814L28.7056 3.729L28.4848 3.65479C22.3756 0.304199 14.7944 0.527344 14.4264 0.527344C14.132 0.527344 6.55078 0.304199 0.44165 3.65479L0.294434 3.729L0.294434 20.5557C0.294434 24.1294 1.61929 27.1079 4.12186 29.1924C6.55078 31.2026 14.2056 34.5532 14.5 34.6279Z" fill="#341B14" fill-opacity="1.000000" fill-rule="nonzero"/>
	<path id="Vector" d="M14.5 35C14.5 35 6.40356 31.4263 3.901 29.416C1.25128 27.1821 0 24.1294 0 20.6304L0 3.20801C6.40356 -0.291504 14.5 0.00634766 14.5 0.00634766C14.5 0.00634766 22.5964 -0.291504 29 3.20801L29 20.5557C29 24.0552 27.7487 27.1079 25.099 29.3413C22.5964 31.4263 14.5 35 14.5 35ZM1.17767 20.6304C1.17767 23.9062 2.35532 26.5864 4.63705 28.4478C6.69797 30.1606 12.8071 32.915 14.5 33.6597C16.1929 32.915 22.3756 30.0859 24.3629 28.4478C26.6447 26.5864 27.8223 23.832 27.8223 20.6304L27.8223 3.50586C19.2843 2.68652 9.12689 3.1333 1.17767 10.5791L1.17767 20.6304Z" fill="#FFB406" fill-opacity="1.000000" fill-rule="nonzero"/>
	<path id="Vector" d="M22.6701 18.1729C23.7741 18.8428 24.2158 19.2896 24.2894 20.1089C24.2894 21.002 23.7005 21.5234 22.7437 21.5234C21.934 21.5234 20.9772 21.0767 20.3147 20.481L20.3147 22.8638C21.1244 23.3101 22.0812 23.6826 23.1117 23.6826C25.6142 23.6826 26.7919 21.8955 26.7919 20.2578C26.8655 18.7686 26.4239 17.5771 24.2894 16.3115C23.3325 15.7158 22.5965 15.3438 22.5965 14.4502C22.5965 13.5566 23.4061 13.1846 24.0685 13.1846C24.9518 13.1846 25.8351 13.7056 26.3503 14.2271L26.3503 11.9932C25.9086 11.6211 24.9518 11.0996 23.5533 11.1743C21.8604 11.2485 20.0939 12.4399 20.0939 14.5244C20.1675 15.9395 20.6092 16.9814 22.6701 18.1729ZM13.9848 23.5337C14.2056 23.6079 14.5736 23.6826 15.1624 23.6826C18.033 23.6826 19.6523 21.0767 19.6523 17.354C19.6523 13.5566 17.9594 11.2485 14.9417 11.2485C13.5432 11.2485 12.4391 11.5464 11.4822 12.1421L11.4822 28.9688L13.9848 28.9688L13.9848 23.5337ZM13.9848 13.4077C14.2056 13.3335 14.5736 13.1846 14.868 13.1846C16.3401 13.1846 16.929 14.3755 16.929 17.2793C16.929 20.1089 16.1929 21.4487 14.7208 21.4487C14.3528 21.4487 14.0584 21.3745 13.9112 21.2998L13.9112 13.4077L13.9848 13.4077ZM6.25638 23.6826C7.80206 23.6826 9.12692 23.3101 10.0838 22.6401L10.0838 11.3975L7.50763 11.3975L7.50763 21.1509C7.21323 21.3745 6.84518 21.4487 6.32996 21.4487C5.15231 21.4487 5.0051 20.332 5.0051 19.6621L5.0051 11.3975L2.42896 11.3975L2.42896 19.5132C2.42896 22.2681 3.75381 23.6826 6.25638 23.6826Z" fill="#FFB406" fill-opacity="1.000000" fill-rule="nonzero"/>
</svg>
