<svg width="258.053894" height="28.000000" viewBox="0 0 258.054 28" fill="none" xmlns="http://www.w3.org/2000/svg" xmlns:xlink="http://www.w3.org/1999/xlink">
	<desc>
			Created with Pixso.
	</desc>
	<defs>
		<clipPath id="clip3_213">
			<rect id="Logo" width="28.000000" height="28.000000" transform="translate(128.275757 0.000000)" fill="white" fill-opacity="0"/>
		</clipPath>
	</defs>
	<path id="Vector" d="M123.515 27.2983L118.157 27.2983L106.027 8.96826L106.027 27.2983L100.669 27.2983L100.669 0.549805L106.027 0.549805L118.157 18.918L118.157 0.549805L123.515 0.549805L123.515 27.2983Z" fill="#1C1C1C" fill-opacity="1.000000" fill-rule="nonzero"/>
	<path id="Vector" d="M95.3966 0.583984L95.3966 27.2939L90.0393 27.2939L90.0393 15.9287L78.5975 15.9287L78.5975 27.2939L73.2402 27.2939L73.2402 0.583984L78.5975 0.583984L78.5975 11.5664L90.0393 11.5664L90.0393 0.583984L95.3966 0.583984Z" fill="#1C1C1C" fill-opacity="1.000000" fill-rule="nonzero"/>
	<path id="Vector" d="M42.5668 13.9033C42.5668 11.2759 43.1536 8.92871 44.327 6.8623C45.5261 4.77051 47.146 3.15039 49.1869 2.00244C51.2533 0.829102 53.562 0.242188 56.1132 0.242188C59.098 0.242188 61.7129 1.00732 63.9579 2.53809C66.2028 4.06885 67.7717 6.18604 68.6647 8.89062L62.5037 8.89062C61.8915 7.61475 61.024 6.6582 59.9016 6.02051C58.8046 5.38281 57.5291 5.06396 56.075 5.06396C54.5187 5.06396 53.1284 5.43359 51.9038 6.17334C50.7048 6.8877 49.7609 7.9082 49.0721 9.23486C48.4088 10.5615 48.0771 12.1177 48.0771 13.9033C48.0771 15.6636 48.4088 17.2197 49.0721 18.5718C49.7609 19.8984 50.7048 20.9316 51.9038 21.6714C53.1284 22.3857 54.5187 22.7432 56.075 22.7432C57.5291 22.7432 58.8046 22.4243 59.9016 21.7861C61.024 21.123 61.8915 20.1538 62.5037 18.8779L68.6647 18.8779C67.7717 21.6079 66.2028 23.7378 63.9579 25.2686C61.7384 26.7739 59.1235 27.5264 56.1132 27.5264C53.562 27.5264 51.2533 26.9521 49.1869 25.8042C47.146 24.6309 45.5261 23.0107 44.327 20.9443C43.1536 18.8779 42.5668 16.5312 42.5668 13.9033Z" fill="#1C1C1C" fill-opacity="1.000000" fill-rule="nonzero"/>
	<path id="Vector" d="M28.8584 4.91211L28.8584 11.6089L37.8511 11.6089L37.8511 15.8564L28.8584 15.8564L28.8584 22.936L38.9991 22.936L38.9991 27.2983L23.5011 27.2983L23.5011 0.549805L38.9991 0.549805L38.9991 4.91211L28.8584 4.91211Z" fill="#1C1C1C" fill-opacity="1.000000" fill-rule="nonzero"/>
	<path id="Vector" d="M19.5925 0.583984L19.5925 4.9082L12.475 4.9082L12.475 27.2939L7.11755 27.2939L7.11755 4.9082L0 4.9082L0 0.583984L19.5925 0.583984Z" fill="#1C1C1C" fill-opacity="1.000000" fill-rule="nonzero"/>
	<rect id="Logo" width="28.000000" height="28.000000" transform="translate(128.275757 0.000000)" fill="#FFFFFF" fill-opacity="0"/>
	<g clip-path="url(#clip3_213)">
		<path id="Vector" d="M146.165 8.17969C145.014 7.41064 143.66 7 142.276 7L142.276 0C145.045 0 147.751 0.821289 150.054 2.35938C152.356 3.89795 154.15 6.08447 155.21 8.64258C156.27 11.2007 156.547 14.0156 156.007 16.7314C155.467 19.4468 154.133 21.9414 152.175 23.8994C150.217 25.8574 147.723 27.1909 145.007 27.731C142.291 28.271 139.476 27.9941 136.918 26.9341C134.36 25.8745 132.173 24.0801 130.635 21.7778C129.097 19.4756 128.276 16.769 128.276 14L135.276 14C135.276 15.3843 135.686 16.7378 136.455 17.8892C137.225 19.04 138.318 19.9375 139.597 20.4673C140.876 20.9971 142.284 21.1357 143.641 20.8652C144.999 20.5952 146.246 19.9287 147.226 18.9497C148.204 17.9707 148.871 16.7236 149.141 15.3657C149.411 14.0078 149.273 12.6001 148.743 11.3213C148.213 10.042 147.316 8.94873 146.165 8.17969Z" fill="#B15FFF" fill-opacity="1.000000" fill-rule="evenodd"/>
		<path id="Vector" d="M135.276 0C135.276 0.919434 135.095 1.82959 134.743 2.67871C134.391 3.52783 133.875 4.2998 133.225 4.94971C132.575 5.59961 131.804 6.11523 130.955 6.46729C130.105 6.81885 129.195 7 128.276 7L128.276 14C130.114 14 131.935 13.6377 133.633 12.9341C135.332 12.231 136.875 11.1997 138.175 9.89941C139.475 8.59961 140.506 7.05615 141.21 5.35742C141.914 3.65918 142.276 1.83838 142.276 0L135.276 0Z" fill="#B15FFF" fill-opacity="1.000000" fill-rule="evenodd"/>
	</g>
	<path id="Vector" d="M251.281 27.3037L241.561 15.4028L241.561 27.3037L236.204 27.3037L236.204 0.59375L241.561 0.59375L241.561 12.5713L251.281 0.59375L257.748 0.59375L246.727 13.834L258.054 27.3037L251.281 27.3037Z" fill="#1C1C1C" fill-opacity="1.000000" fill-rule="nonzero"/>
	<path id="Vector" d="M225.464 27.3037L219.571 16.8955L217.046 16.8955L217.046 27.3037L211.688 27.3037L211.688 0.59375L221.714 0.59375C223.781 0.59375 225.541 0.963867 226.995 1.70361C228.449 2.41797 229.533 3.3999 230.248 4.6499C230.987 5.87451 231.357 7.25195 231.357 8.78271C231.357 10.543 230.847 12.1377 229.827 13.5659C228.806 14.9692 227.288 15.9385 225.273 16.4746L231.663 27.3037L225.464 27.3037ZM217.046 12.8774L221.523 12.8774C222.977 12.8774 224.061 12.5327 224.775 11.8442C225.49 11.1299 225.847 10.1475 225.847 8.89746C225.847 7.67285 225.49 6.729 224.775 6.06592C224.061 5.37695 222.977 5.03271 221.523 5.03271L217.046 5.03271L217.046 12.8774Z" fill="#1C1C1C" fill-opacity="1.000000" fill-rule="nonzero"/>
	<path id="Vector" d="M200.674 22.2114L190.036 22.2114L188.276 27.3013L182.651 27.3013L192.256 0.552734L198.493 0.552734L208.098 27.3013L202.435 27.3013L200.674 22.2114ZM199.22 17.9258L195.355 6.75195L191.49 17.9258L199.22 17.9258Z" fill="#1C1C1C" fill-opacity="1.000000" fill-rule="nonzero"/>
	<path id="Vector" d="M180.493 8.85938C180.493 10.2881 180.148 11.6274 179.46 12.8774C178.796 14.1274 177.738 15.1353 176.284 15.9004C174.855 16.6655 173.044 17.0483 170.85 17.0483L166.372 17.0483L166.372 27.3037L161.015 27.3037L161.015 0.59375L170.85 0.59375C172.916 0.59375 174.676 0.950684 176.13 1.66504C177.585 2.37939 178.669 3.36182 179.383 4.61182C180.123 5.86182 180.493 7.27783 180.493 8.85938ZM170.62 12.7241C172.1 12.7241 173.197 12.3926 173.911 11.7295C174.625 11.0405 174.982 10.084 174.982 8.85938C174.982 6.25732 173.528 4.95605 170.62 4.95605L166.372 4.95605L166.372 12.7241L170.62 12.7241Z" fill="#1C1C1C" fill-opacity="1.000000" fill-rule="nonzero"/>
</svg>
