<svg display="none" xmlns="http://www.w3.org/2000/svg">
	<symbol id="icon-star" viewBox="0 0 106 17" fill="none">
		<g>
			<rect id="star" width="18.000000" height="17.000000" fill="#FFFFFF" fill-opacity="0" />
			<path id="Vector" d="M9 14.2368L13.3649 16.8457C14.1642 17.3237 15.1424 16.6172 14.932 15.7231L13.7751 10.8174L17.6351 7.51221C18.3398 6.90918 17.9611 5.76611 17.0356 5.69336L11.9555 5.26709L9.96765 0.631348C9.61005 -0.210449 8.38995 -0.210449 8.03235 0.631348L6.04449 5.25684L0.964417 5.68262C0.0388794 5.75537 -0.339783 6.89893 0.364929 7.50195L4.22491 10.8071L3.06799 15.7129C2.8576 16.6069 3.83575 17.3135 4.63513 16.8354L9 14.2368Z" fill="#FEC400" fill-opacity="1.000000" fill-rule="nonzero" />
			<rect id="star" width="18.000000" height="17.000000" transform="translate(22.000000 0.000000)" fill="#FFFFFF" fill-opacity="0" />
			<path id="Vector" d="M31 14.2368L35.3649 16.8457C36.1642 17.3237 37.1424 16.6172 36.932 15.7231L35.7751 10.8174L39.6351 7.51221C40.3398 6.90918 39.9611 5.76611 39.0356 5.69336L33.9555 5.26709L31.9677 0.631348C31.61 -0.210449 30.39 -0.210449 30.0323 0.631348L28.0445 5.25684L22.9644 5.68262C22.0389 5.75537 21.6602 6.89893 22.3649 7.50195L26.2249 10.8071L25.068 15.7129C24.8576 16.6069 25.8358 17.3135 26.6351 16.8354L31 14.2368Z" fill="#FEC400" fill-opacity="1.000000" fill-rule="nonzero" />
			<rect id="star" width="18.000000" height="17.000000" transform="translate(44.000000 0.000000)" fill="#FFFFFF" fill-opacity="0" />
			<path id="Vector" d="M53 14.2368L57.3649 16.8457C58.1642 17.3237 59.1424 16.6172 58.932 15.7231L57.7751 10.8174L61.6351 7.51221C62.3398 6.90918 61.9611 5.76611 61.0356 5.69336L55.9555 5.26709L53.9677 0.631348C53.61 -0.210449 52.39 -0.210449 52.0323 0.631348L50.0445 5.25684L44.9644 5.68262C44.0389 5.75537 43.6602 6.89893 44.3649 7.50195L48.2249 10.8071L47.068 15.7129C46.8576 16.6069 47.8358 17.3135 48.6351 16.8354L53 14.2368Z" fill="#FEC400" fill-opacity="1.000000" fill-rule="nonzero" />
			<rect id="star" width="18.000000" height="17.000000" transform="translate(66.000000 0.000000)" fill="#FFFFFF" fill-opacity="0" />
			<path id="Vector" d="M75 14.2368L79.3649 16.8457C80.1642 17.3237 81.1424 16.6172 80.932 15.7231L79.7751 10.8174L83.6351 7.51221C84.3398 6.90918 83.9611 5.76611 83.0356 5.69336L77.9555 5.26709L75.9677 0.631348C75.61 -0.210449 74.39 -0.210449 74.0323 0.631348L72.0445 5.25684L66.9644 5.68262C66.0389 5.75537 65.6602 6.89893 66.3649 7.50195L70.2249 10.8071L69.068 15.7129C68.8576 16.6069 69.8358 17.3135 70.6351 16.8354L75 14.2368Z" fill="#FEC400" fill-opacity="1.000000" fill-rule="nonzero" />
			<rect id="star" width="18.000000" height="17.000000" transform="translate(88.000000 0.000000)" fill="#FFFFFF" fill-opacity="0" />
			<path id="Vector" d="M97 14.2368L101.365 16.8457C102.164 17.3237 103.142 16.6172 102.932 15.7231L101.775 10.8174L105.635 7.51221C106.34 6.90918 105.961 5.76611 105.036 5.69336L99.9555 5.26709L97.9677 0.631348C97.61 -0.210449 96.39 -0.210449 96.0323 0.631348L94.0445 5.25684L88.9644 5.68262C88.0389 5.75537 87.6602 6.89893 88.3649 7.50195L92.2249 10.8071L91.068 15.7129C90.8576 16.6069 91.8358 17.3135 92.6351 16.8354L97 14.2368Z" fill="#FEC400" fill-opacity="1.000000" fill-rule="nonzero" />
		</g>
	</symbol>
	<symbol id="icon-arrow-bottom" viewBox="0 0 19.5 19.5" fill="none">
		<g>
			<path id="Ellipse 140" d="M0 9.75C0 4.36523 4.36523 0 9.75 0C15.1348 0 19.5 4.36523 19.5 9.75C19.5 15.1348 15.1348 19.5 9.75 19.5C4.36523 19.5 0 15.1348 0 9.75Z" fill="#B15FFF" fill-opacity="1.000000" fill-rule="nonzero" />
			<path id="Vector (Stroke)" d="M10.3245 14.8745C10.0072 15.1914 9.49277 15.1914 9.17548 14.8745L4.62546 10.3242C4.30817 10.0068 4.30817 9.49268 4.62546 9.17529C4.94278 8.85791 5.45721 8.85791 5.77451 9.17529L8.9375 12.3384L8.9375 5.19971C8.9375 4.75098 9.30127 4.38721 9.75 4.38721C10.1987 4.38721 10.5625 4.75098 10.5625 5.19971L10.5625 12.3384L13.7255 9.17529C14.0428 8.85791 14.5572 8.85791 14.8745 9.17529C15.1918 9.49268 15.1918 10.0068 14.8745 10.3242L10.3245 14.8745Z" fill="#FFFFFF" fill-opacity="1.000000" fill-rule="evenodd" />
		</g>
	</symbol>
</svg>
